/* XPM */
static char *m_0091668269988[] = {
/* columns rows colors chars-per-pixel */
"64 64 183 2 ",
"   c #2D3444",
".  c #323645",
"X  c #343946",
"o  c #343748",
"O  c #343949",
"+  c #3A3C49",
"@  c #374248",
"#  c #3C454A",
"$  c #3E484C",
"%  c #394553",
"&  c #3E4F59",
"*  c #42464A",
"=  c #48474C",
"-  c #444B4D",
";  c #494D4E",
":  c #4B524F",
">  c #454D53",
",  c #4A4E53",
"<  c #434D5A",
"1  c #4A4E5D",
"2  c #465155",
"3  c #4C5255",
"4  c #45515B",
"5  c #4C545A",
"6  c #465858",
"7  c #4D5B5C",
"8  c #505457",
"9  c #51565B",
"0  c #525B5D",
"q  c #595A5F",
"w  c #4C615E",
"e  c #51615E",
"r  c #464D60",
"t  c #4A4E62",
"y  c #465461",
"u  c #4B5463",
"i  c #4C5A65",
"p  c #4D5C68",
"a  c #555760",
"s  c #545D62",
"d  c #5A5D63",
"f  c #525D6B",
"g  c #5D5E6A",
"h  c #605F67",
"j  c #615F6B",
"k  c #4E6362",
"l  c #4F606A",
"z  c #546364",
"x  c #5A6365",
"c  c #546867",
"v  c #5B6867",
"b  c #556569",
"n  c #5C646B",
"m  c #556A6A",
"M  c #5D6B6C",
"N  c #57716E",
"B  c #5C716E",
"V  c #5D6373",
"C  c #566E70",
"Z  c #5C6B73",
"A  c #5F6678",
"S  c #5D6B7B",
"D  c #5E7372",
"F  c #5E7975",
"G  c #5F7978",
"H  c #616666",
"J  c #626A67",
"K  c #61646C",
"L  c #626B6D",
"P  c #696C6F",
"I  c #65716E",
"U  c #626573",
"Y  c #646D72",
"T  c #6A6D74",
"R  c #606579",
"E  c #626B7B",
"W  c #6C6E7A",
"Q  c #706F74",
"!  c #637373",
"~  c #6A7375",
"^  c #627A76",
"/  c #647678",
"(  c #6C747B",
")  c #637C7B",
"_  c #6B7A7B",
"`  c #737076",
"'  c #72737D",
"]  c #7A767B",
"[  c #737B7D",
"{  c #7A7B7E",
"}  c #64827C",
"|  c #6A827E",
" . c #70807F",
".. c #6F7481",
"X. c #657F80",
"o. c #6C7D81",
"O. c #737582",
"+. c #787783",
"@. c #747A84",
"#. c #797B84",
"$. c #767B89",
"%. c #7A7D89",
"&. c #807E8B",
"*. c #668482",
"=. c #6B8482",
"-. c #678881",
";. c #6C8A85",
":. c #688789",
">. c #6E8B89",
",. c #748284",
"<. c #7A8386",
"1. c #718B86",
"2. c #758489",
"3. c #7B848A",
"4. c #728B89",
"5. c #7C8A8C",
"6. c #6D908B",
"7. c #72928D",
"8. c #7C8393",
"9. c #7D8D91",
"0. c #7F879A",
"q. c #729493",
"w. c #7E9295",
"e. c #7E949A",
"r. c #808686",
"t. c #818289",
"y. c #818C8D",
"u. c #818392",
"i. c #828E93",
"p. c #84879B",
"a. c #84899C",
"s. c #888B9C",
"d. c #849395",
"f. c #899595",
"g. c #8A9897",
"h. c #85959A",
"j. c #8A9698",
"k. c #86999C",
"l. c #8B9B9D",
"z. c #919D9E",
"x. c #91A09D",
"c. c #98A39F",
"v. c #868EA0",
"b. c #8990A2",
"n. c #8C9DA2",
"m. c #929EA2",
"M. c #8DA1A3",
"N. c #8EAAAB",
"B. c #93A3A5",
"V. c #99A6A5",
"C. c #92A8A6",
"Z. c #94A5AA",
"A. c #9AA7AB",
"S. c #95AAAC",
"D. c #9BABAD",
"F. c #92B2AF",
"G. c #9DB1AE",
"H. c #96ACB3",
"J. c #9CADB2",
"K. c #95B3B4",
"L. c #9DB2B4",
"P. c #9DB3B9",
"I. c #9EBBBC",
"U. c #A1ACAF",
"Y. c #A2AEB3",
"T. c #A3B3B5",
"R. c #A8B5B6",
"E. c #A3B5B9",
"W. c #A4BABB",
"Q. c #ABBBBD",
"!. c #B2BDBF",
"~. c #A4BEC0",
"^. c #AABDC1",
"/. c #B4BFC1",
"(. c #A6C0C1",
"). c #ACC3C5",
"_. c #ABC5C9",
"`. c #B4C3C5",
"'. c #B2CBCC",
"]. c #B8CACE",
"[. c #B3CFD2",
"{. c #B9CED1",
"}. c #BCD0D1",
/* pixels */
"' #. .<.<.#.<.r.{ #.#.x q P L ! Y Y ~ L ~ ~ J J J I P J P I I L I ( ( ! ~ ~ ~ L Y Y Y U U K g d x d x 9 P #.{ [ { [ [ [ [ <.#.K ",
"~ ` ' { [ [ [ [ T P 0 8 P P ~ Y L T ~ ! Y ! L n v J J L L L Y z x D ~ ~ Y Y Y L K Y Y T K h d x n g g 0 0 U ~ ~ ' ( ( ( ~ ~ H 3 ",
"' Y x L L L L L H 8 , q ~ ( ' ( ~ ~ ( ~ ~ ! I P v L I I ! L L M M Y ( ! Y ~ Y U Y ( T ( T Y Y n K K x d s n x x v b b x n d 3 3 ",
"~ ~ Y ( ~ ( ( ( H 0 3 d P P L ~ H n J J J n v e x v v v M v L v s n n K L K n K K K Y Y P K d d d x d s u n Y n L n K n n K s , ",
"` ( W ( @._ ( d 9 8 * 6 0 e z 0 e 0 e e 0 z e w 7 e e e z z z 0 9 7 e e z c 7 s z s 0 0 7 0 5 7 7 0 5 7 - 5 U 5 d E Y ( Y n a , ",
"_ ( ~ ( o.~ q , ; 3 < 6 N } ^ F ^ ^ B z 6 7 0 7 w w w z z w z e 7 7 w 7 7 k k 7 7 7 7 6 s v M Y B D D b < $ 9 * 0 n Y ( W Y s , ",
"( ( ~ ~ ~ 0 - 1 n g $.A m -.;.| =.1.L 5 3 8 5 5 3 2 6 5 6 6 3 3 ; , 3 3 8 3 , , , 3 5 5 5 ! o.=.=.| G k y % 9 g x d n Y T K a 3 ",
"_ ( P [ n > 5 T #.O.' a.S D -.| | >.) 3 r.g.i.9.d.g.f.l.f.,._ P / L L  .[ ~ ~ (  .,.3._ > ) ;.=.=.) c p u V +.O.U s n n P Y 0 4 ",
"( ~ _ L x s U $.%.+.....p.R D *.=.1.) > 3.C.C.T.W.W.L.E.U.l.l.k.M.q.9.d.f.f.r.f.l.l.l.,., / 6.6.) m u t V $.%.+.' Y ' P n n 8 , ",
"_ L 9 5 , , a $.+.+.+.O...p...m / ) D > [ m.T.'.).Q.W.Q.W.F.F.k.M.N.M.d.l.z.z.V.V.B.g.| 5 ) >.) c u t U $.$.$.$.#.T K 0 0 8 5 3 ",
"( 7 - ; * @   n $...O.$.O.W p.S c D ! 4 d j.B.~.).W.L.Q.W.M.h.9.w.y.x.k.g.V.c.V.c.c.d.x 5 ) / s u u V $.%.$.%.3.O.f $ , 3 8 3 3 ",
"5 ; s 0 5 6 < o g $.O.+.O.....p.S b ! m , d f.T.`.W.E.W.Q.R.x.l.l.5.C.C.B.V.C.V.l.5.d 5 F ) z i t R $.%.$.%.%.+.R i 2 s d s 3 > ",
"8 x Y n z m c < o j $.O.O.O...O.v...u Z v 5 s g.G.W.L.R.R.R.D.n.G.k.l.l.g.B.l.l.5.q 5 / ) z u t j +.%.%.+.%.' U f i m v n Y x 4 ",
"n Z Y n i G ) c < o j %.O.O.O.....v...u Y / 4 f d.x.G.T.D.A.R.Q.I.k.B.G.c.l.d.5.9 6 ! / b i t K +.%.%.#.%.O.A p m X.F v L ( Y d ",
"n Z Y U b X.:.X.n < . j $...O.$.....0.A b :.F 5 d 5.l.D.L.D.R.V.G.C.x.G.B.i.<.d 8 ^ ) c p u K %.%.#.%.3.' A i z ) 6.} M K ( Y s ",
"x Y Y Y z :.q.:.X.b 1 o g $.+.+.$.....v.S m :.*.5 e g.T.Q.R.Q.G.S.L.D.x.l.<.0 7 / =.b p t V +.3.t.&.t.#.E i w ! -.6.^ M n T U s ",
"n K / n c *.>.;.o.) b < o K $.O.+.$.O.O.a.S C } ^ 5 s h.G.T.!./.G.B.V.y.,.x 7 ) } z u t K #.%.%.%.t.] R f 7 I | 1.;.} M v ! M s ",
"x v Y n z ) 4.4.4.4.X.b < o U $.O.$.$.O.O.b.S b } ^ 6 s B.A.!.!.V.c.x.<.9 8 ^ ) z u 1 g O.+.#.#.%.#.R s 9 ! | ;.1.;.} M M L M x ",
"z b Y M z ^ ) X.) / ) / z < . n $.O.$.$.O.$.v.S m *.) 6 x c.Y.T.G.D.f.0 4 ^ | m u 1 g ] #.+.O.%.O.U i 7 ^ / I ^ ^ F B v v Z L s ",
"v b Z L z m 5 > > > 0 B / s <   g $.$.$.$.o.o.v.A f *.D * x <.3.5.5.d 5 ^ _ z u < g ] #.@.] +...A p s Y B 6 - > 2 7 e M x ~ n s ",
"Y m Y M v 7 5 o._ / s 3 M ! 0 < o R $.+.$.@.....v.S b ) M 5 4 3 3 6 0 ^ / z u 1 h ] +.+.O...W V u 9 / n > 3 n n K : w m z Y n v ",
"M n Y Y z w 3 d.k.h.9.i 2 D ) 7 < O g $...O.O.O.@.v.S f G Y M B I ^ | ^ z i < K ] O.O...+.W Z u , Y M - 3 [ 8.8. .: e M x M x z ",
"M Y ! m s 7 2 [ l.h.d.,.3 4 F / 5 < . n #.' @.@...@.p.Z f / _ _ _ | ! z u 1 K #.#.+.$.+.W V i 7 Y v > 0 5.m.E.J.d.8 7 M n Y Z z ",
"M M ~ M z 7 2 ,.k.k.M.<.~ 4 6 D Z 9 < + K @.' @.$.O...a.Z z ! / | ! 0 4 t n @.3.#.#.@.W V u 0 ! v , 0 2.m.J.^.Y.y.7 i M v Y M s ",
"n L / ~ s 5 5 ,.l.C.n.9.2.! 5 4 M / z & . g #.%.$.$.@.+.a.A c ! M 0 4 t K #.3.<.#.#.' n p s ! M > a e.n.P.E.P.Z.<.9 w M L D M x ",
"M Y / ! e 7 5 @.d.d.d.5.5./ ~ 5 4 M ^ s < . R 8.%.%.%.( ' s.S 4 3 4 u j +.#.%.3.3.' Z f m } D - 9 h.H.E._.K.n.n.<.3 0 B I ~ M z ",
"L ! _ ! z 7 5 [ 3.d.w.5.<.<.@.~ 5 5 M ! s & X U %.O.+.#.Q ` s.A 4 , j ' { <.3.3.' U l c *.D - 7 a.T.{.`.J.P.n.Z.d.3 w I ! / I v ",
"! ! ( ~ v 7 3 ! 3.d.3.,.,.w.,._ ( 0 4 B ! z < o R 2...' ` W ' #.U h ] +.@.#.$.O.Y i 0 ! B - : 5.H.^.^.P.J.E.Z.M.k.7 7 v Z ~ ! v ",
"B ~ ( ! z 7 3 ( d.n.i.8.d.k.w.h.,.~ 5 2 D / z < . V @...O.O.( ( T ' O.$.+.$...A p c ^ B - 8 9.h.S.P.D.E.Z.I.K.H.5.3 7 J M ~ D v ",
"! / _ ! z 7 5 r.V.B.n.d.d.h.d.b.5.<.~ 5 7 ) *.c <   f ..W ..O.O.W ( ( O.@.( V i z ) } 5 s w.L.P.E.W._.~.F.H.n.n.d.9 6 B ! _ ^ M ",
"! ~ _ ~ c c 9 f.Y.A.f.3.9.i.h.n.k.h.2./ < F ;.) c &   g ..@...O.O.W W O.Y V p 0 ^ =.^ ; 5.k.H.E.`.{.'.Q.I.K.n.k.5.7 2 I ~ _ _ B ",
"( _ _ ! v w s j.A.B.h.i.5.2.h.M.k.n.k.Y 2 F =.*.F k % + ..@.+.O.O.O.( W O.i 7 D | =.! ; 3.n.J.E.Y.~.L.[.~.I.L.M.d.5 w I ~  ._ L ",
"L ( _ L z 7 0 3.m.m.m.m.j.i.n.Z.B.C.h._ 2 ) q.=.Y 7 < * ' O.#.O.' ' W ' u.R 5 Y ) | } ; _ N.^.^.J.P.J.{.Q.T.L.^.B.8 e ! L _ ~ v ",
"z Y _ L z 0 0 <.i.f.z.D.J.B.m.B.m.B.d.#.2 G 2./ z t < d O.+.O.O.Q ' ] %.+.p.V s L | ^ ; o.e.Z.Q.W._.J.W.'.Q.T.W.d.9 w L v ~ I e ",
"x L ~ n z w 8 <.y.j.B.Y.Y.z.l.A.d.l.2.s 5 ) X.c y r d W @.#.+.] ] ` +.&.+...0.A s ) ^ 6 0 f.B.~.W.E.J.m.D.Q.W.D.f.0 e M M ! L e ",
"x x Y n z e 3 ,.m.D.Y.A.m.V.n.Z. .5.z 5 G ) b p t V ( O.@.+.{ { ] ] +.#.%...( p.A N -.} > n l.Z.E.Y.Y.T.T.W.R.(.C.d 7 M n ! I x ",
"s s Y x e k 3 ,.A.T.J.m.h.f.d.3.~ s 6 Z / z u < f $.$.+.' [ Q a = K $.$.$.%...W p.S b } F 6 s f.A.J.T.Q.Q.`.Q._.Z.0 7 B J ! L x ",
"d s n s z c , @.m.D.H.m.l.h.5.[ 0 4 Z F f y < n O.%.3.+.{ ~ g < @ X V 3.$.$.$.O.O.a.S c } ^ , f i.B.Y.Q.Q.T.T.Q.S.0 w I x L n d ",
"d z n s e e 3 [ h.C.J.B.H.h.,.7 y D ) z u r g @.3.@.@.#.` V i 7 5 < X b $.$.$.$.O.W a.Z M -.G & 9 i.f.U.D.Q.W.).G.7 7 v x L x q ",
"s n K s 0 9 , ( l.D.L.M.h.5.s 4 D ) z i t V O.O.O.@.$...A p s D ! s 4 X V $.$.$.%.O.( a.S D :.C > s y.A.Q.!.E.L.l.3 w M s x v 9 ",
"d x K s 0 7 5 [ x.D.C.M.2.7 5 } } c i t g $.$.O.@.%.O.S p l F / =.) m y O U %.$.#.+.O...&.....:.D < 9 l.D.D.J.W.x.0 k N 0 x x 8 ",
"0 s n d e z 3 [ l.B.g.5.0 3 G } m i t V $.$.$.%.%.] Y f m / ;.;.;.;.*.m 4 o R %.$.O.+.O.$.&...l } D , 7 ,.l.D.(.M.s k M 0 n x 9 ",
"s s n f 0 w 5 <.g.B.f.d 4 D ^ s y t V $.%.$.%.3.O.V p m } ) ! D ! F ;.:.C y o n +.O.O.+.....&...z ~ M 2 0 y.m.L.M.s k m 9 n x 0 ",
"s s n b z 7 9 [ [  .s 5 ! ^ z i u A $.%.$.%.%.+.R p z ) D 7 3 ; > 2 k } *.c < o g $.O.O.$.....&.S m ~ M 4 d <.d.d.s m m 9 n z 0 ",
"s s c f 0 m s 0 3 3 z D / s i 1 j +.%.%.%.%.' U p k ) D 4 3 L ~ T ! 3 3 F ) c < o g $.O.+.O...O.a.S b ! M i 5 4 7 p N M 9 x e 9 ",
"s s v 7 5 ! / ) ^ / *./ z u u U +.%.#.%.$.O.R p m *.D 3 6 ! <.y.#.<.,.> 4 ^ :.b < o K %.O.O.+...O.a.S f / X.X.:.} } -.m e n x 0 ",
"7 s n s 7 ~ 4.4.>.=./ z p t U #.%.%.%.3...A u z -.} 2 3 ~ #.j.B.l.z.l.~ 2 4 / ) z < o K $.O.O.$.....a.S C :.q.q.q.q.} m s x z 9 ",
"5 7 z i 7 ) 1.4.2./ z u u V #.%.t.t.t.@.E p 0 Y B 2 ; D @.5.9.m.D.A.B.2.M 5 5 F X.z < X j $.O.+.$.....a.S Z :.q.q.6.} M f v s 7 ",
"s 5 f 5 7 } ;.1.^ 0 4 t U #.#.%.%.t.] U p 0 ! B ; 2 m | k.e.h.n.m.J.n.9.,.,.8 4 D / z < . U $.O.O.$...O.v.S C *.>.6.} m s z x s ",
"s s s 5 z } =.^ 0 u 1 U O.+.#.#.&.] R a i ! B 3 3 v X.5.4.9.n.h.h.n.h.w.h.5.~ 4 , ! / z > o V $.O.$.$.O.@.b.S m ) ;.) z s x z 7 ",
"0 0 s 5 7 ) ) v u 1 g ] +.{ +.&.O.R p 5 ! M 2 3 L #.5.5.@.9.n.h.n.n.h.w.h.9.2._ 9 4 D ^ s < . n $.O.+.$.@.O.v.S c G D v 0 v x 5 ",
"7 7 0 5 7 m z u 1 h ` +.] +.O.' V p z ! M 3 > I @.d.i.h.B.B.m.n.Z.J.D.Z.n.d.k.w.,.9 5 D / s < X g $.$.%.$...$.v.A s D z 0 0 7 3 ",
"K x 0 3 $ - < 1 h @.O.@.O.O.W A u s ) M , 3 Y ..5.l.m.L.L.n.n.n.n.C.J.Z.Z.b.M.S.w._ 0 3 m ~ z < . V %.+.o.$.( O.s.V 2 3 8 d T n ",
"I ~ ~ P e 2 < n ' O.+.O.+.W V u , Y Y 6 5 ( 3.i.9.B.n.J.L.l.Z.n.H.E.J.A.M.M.M.H.B.9.,.i 5 X.) z < o V +...O.@.@.$.8.s K [ r. .3 ",
"P v n ~ ~ 7 9 #.#.{ +.@.W V i 5 M _ Z - @.Z.P.Y.J.A.m.m.M.A.m.i.n.H.A.Z.n.n.w.n.n.9.9.~ , D ;./ s & . V #.O.O.@...Y [ r.{ ~ 0 3 ",
"L n 8 e 3 $ P #.#.#.+.T V i 0 Z _ ;.^ , 2.A.T.T.B.h.l.C.n.B.m.h.n.n.n.Z.n.n.h.n.k.9.h.! > M | | D s < . K +.' +.$.U P J 0 x 7 ; ",
"I J x x 9 e n ~ #.#.' V p k ! _ _ =.^ ; 2.n.f.i.3.5.,.5.w.3.,.<.#.2.5.2.@.<.4.<.2.5.2.L > L =.;.*.) c 4 . g #.@.E ~ { ` v I 0 : ",
"I P e x x v x x ~ T g i c ) _ / ;.>.) 3 0 0 3 7 3 3 0 7 7 5 5 7 q 0 0 8 5 9 s 7 5 7 4 i i Y =.| =.} G z < X n T ` r.,.L P L 0 : ",
"I J x K P v H P [ P - 6 N D F F D } F z 7 7 7 7 0 7 7 w z k k c i 7 7 7 7 7 7 7 7 5 7 5 z M M M ! F B v - < ] [ r.{ P I I J 0 : ",
"J H e H H P H P P 9 3 z B I I ! L L ! M L ! M L ! ! ! ! I ! I ! ! I ! ! ! I ! ! ! Y L L L M H K M M J K 9 v { ~ ~ L I ! I I 8 : ",
"P P e J J J K H q q q 0 L Y Y n n n x v K n x I I I ! L J I B M ! / ~ ~ _ _ ! Y I ! L Y K H h h q g x d 9 ` [ 9 z K v K J P e : ",
"I J 8 P J J H K J n d 0 P Y Y ~ Y Y P H I P P P ~ _ _ _ ! _ _ _ _ _ _ _ o.,._ _ _ ( Y Y ( T H K K P P H H #.P 0 L v v M I e e 8 ",
"P q : 8 : : 3 8 3 3 d d x Y L ~ L Y P J L I I I P ~ ! ~ ~ _ ( _ _ ) _  ._ _ _ [ ( / Y L ~ W K Y K P P d P _ 0 > 3 3 3 3 3 7 8 8 ",
"e * * * * * = ; - * , 3 5 d z v v x d e v v H e x x J v M I M Z D ~ Z Y L L L Y Y K x x n s s d d d q 8 J > - * $ $ $ * ; ; : 8 "
};
