/* XPM */
static char *m_0071668269989[] = {
/* columns rows colors chars-per-pixel */
"64 64 224 2 ",
"   c #393E3D",
".  c #363C3A",
"X  c #333932",
"o  c #3D443D",
"O  c #3E4A3A",
"+  c #3D4434",
"@  c #444B36",
"#  c #4C4B35",
"$  c #44463D",
"%  c #444B3C",
"&  c #4B4B3D",
"*  c #484437",
"=  c #524D35",
"-  c #534E3C",
";  c #46513D",
":  c #4B533D",
">  c #52533E",
",  c #5B553E",
"<  c #52583D",
"1  c #59543B",
"2  c #625A3E",
"3  c #383F41",
"4  c #3C4342",
"5  c #3F4948",
"6  c #394442",
"7  c #424642",
"8  c #454B44",
"9  c #4B4C43",
"0  c #444D49",
"q  c #4B4F48",
"w  c #484742",
"e  c #524E43",
"r  c #465241",
"t  c #4C5343",
"y  c #4C5944",
"u  c #465149",
"i  c #4C534B",
"p  c #4E5A4B",
"a  c #535344",
"s  c #5B5544",
"d  c #535C44",
"f  c #5C5945",
"g  c #52544A",
"h  c #5A5649",
"j  c #535C4A",
"k  c #5B5B4B",
"l  c #4E5951",
"z  c #4B5553",
"x  c #525D54",
"c  c #535D5A",
"v  c #565A54",
"b  c #635D44",
"n  c #625E4A",
"m  c #645F53",
"M  c #566145",
"N  c #5A6346",
"B  c #55624A",
"V  c #5B644B",
"C  c #5D6A4D",
"Z  c #556256",
"A  c #5A6552",
"S  c #5D6B52",
"D  c #566259",
"F  c #5A645C",
"G  c #5F6C59",
"H  c #5F7358",
"J  c #656145",
"K  c #6B6345",
"L  c #64624D",
"P  c #6B644C",
"I  c #626C4D",
"U  c #6D694D",
"Y  c #726B4D",
"T  c #796E4D",
"R  c #71674D",
"E  c #63714E",
"W  c #69704E",
"Q  c #7B734F",
"!  c #656452",
"~  c #6A6652",
"^  c #626C53",
"/  c #6B6A54",
"(  c #6C665B",
")  c #6D6B5B",
"_  c #64645C",
"`  c #736D54",
"'  c #796D53",
"]  c #736C5B",
"[  c #74695C",
"{  c #657254",
"}  c #6A7555",
"|  c #6C7955",
" . c #66755A",
".. c #6A765A",
"X. c #6D7B5D",
"o. c #757154",
"O. c #7B7454",
"+. c #7F7955",
"@. c #75725D",
"#. c #7B755B",
"$. c #727C5C",
"%. c #7E795C",
"&. c #707A57",
"*. c #5B6561",
"=. c #586562",
"-. c #626663",
";. c #636C64",
":. c #6C6C63",
">. c #656D6A",
",. c #6A6F69",
"<. c #746C62",
"1. c #7A6E64",
"2. c #6C7B61",
"3. c #66726A",
"4. c #6B746C",
"5. c #6E786E",
"6. c #6A7066",
"7. c #757264",
"8. c #7B7364",
"9. c #717D61",
"0. c #7D7A64",
"q. c #74756B",
"w. c #7C7569",
"e. c #737B6F",
"r. c #7D7A6C",
"t. c #6B7672",
"y. c #6E7A72",
"u. c #687974",
"i. c #737B74",
"p. c #7D7E73",
"a. c #737D79",
"s. c #7A7F7A",
"d. c #717673",
"f. c #827A56",
"g. c #81765A",
"h. c #837B5B",
"j. c #897E5C",
"k. c #837656",
"l. c #817567",
"z. c #837C63",
"x. c #82756B",
"c. c #837B6C",
"v. c #897C6E",
"b. c #897D64",
"n. c #857D71",
"m. c #897E73",
"M. c #816F65",
"N. c #74815D",
"B. c #7A835F",
"V. c #748362",
"C. c #798967",
"Z. c #7C8276",
"A. c #75817C",
"S. c #7B837C",
"D. c #7E8A7D",
"F. c #7F8875",
"G. c #6F8266",
"H. c #86815D",
"J. c #8C825D",
"K. c #8E895F",
"L. c #868163",
"P. c #8B8463",
"I. c #8E8965",
"U. c #85826B",
"Y. c #8A846C",
"T. c #8D896B",
"R. c #828E64",
"E. c #918561",
"W. c #928A65",
"Q. c #928D6C",
"!. c #988F6E",
"~. c #86956B",
"^. c #96926D",
"/. c #99936E",
"(. c #858273",
"). c #8A8374",
"_. c #8D8B74",
"`. c #81867D",
"'. c #8D8679",
"]. c #838A7D",
"[. c #8D8A7B",
"{. c #878876",
"}. c #938D72",
"|. c #908B7D",
" X c #91877B",
".X c #88907A",
"XX c #969272",
"oX c #9B9573",
"OX c #9D9974",
"+X c #96947D",
"@X c #99957B",
"#X c #9E9A7A",
"$X c #A29D7B",
"%X c #A49D79",
"&X c #A5A17D",
"*X c #A8A47F",
"=X c #7C8582",
"-X c #7D8A82",
";X c #7B8886",
":X c #828682",
">X c #838C83",
",X c #8A8D85",
"<X c #848D8A",
"1X c #888F88",
"2X c #839085",
"3X c #8B9285",
"4X c #85928A",
"5X c #8B948B",
"6X c #88998D",
"7X c #92948C",
"8X c #969786",
"9X c #8C9693",
"0X c #8D9A93",
"qX c #8F9998",
"wX c #929791",
"eX c #959B94",
"rX c #949D9B",
"tX c #9A9F9B",
"yX c #928F80",
"uX c #8FA096",
"iX c #98A19D",
"pX c #A8A482",
"aX c #959FA0",
"sX c #9BA3A2",
/* pixels */
"z.).c.c.Y.l.U.}.Y.c.0.~ 1.m.m.n.m.n.m.c.).).z.l.v.c.U.c.c.Y.).c.n.'.[.m.).).).m.m.m.n.m.x.x.M.1.M.1.1.1.( 0.(.(._.U.T.U.c.(.Y.] ",
"O.g.` ' z.l.%.P.0.%.f k x.m.).m.v.v.).).m.Y.c.8.z.l.b.c.c.c.c.7.q.n.).).n.n.m.x.x.m.n.n.x.x.1.1.w.1.<.<.h n ) ~ ` @.%.O.%.z.P = ",
"` ' P n ' R o.O.U J > ( ). X X X'.).).).'.).c.c.l.U.c.).).U.U.w.r.m.'.n.m.n.n.x.m.m.'.[.m.m.x.x.x.x.1.1.( f > = = , K K Y J s , ",
"8.8.' ' O.] z.z.o.P b 1.v.m.m.).l.l.v.c.c.0.c.8.#.8.l.w.l.c.c.w.7.x.c.x.n.n.x.x.x.m.m.m.m.x.x.1.1.w.w.1.( ~ L a n P Y Y O.' n , ",
"#.~ P ' g.8.#.~ L J s h m L ~ ~ ^ L L ! L L k L L ^ ! P ! ! L k d k L ! ! ! ! k ! n A n ! k j k g m k h 9 h n * > P #.O.+.` f s ",
"8.' R ] b.z.~ f b f j a Y | { | N.N.S y r : r y t M j B M y @ O : y y d d d d y : : t % i y : B v q t % + % & * # k o.L.L.%.P f ",
"] @.~ ' O.n f g -._ >X4./ B.B.R.XXC.9.g 9 9 9 $ $ % 9 8 r 9 g g 9 & 9 & e 9 9 9 8 $ w 9 t ..N...9. .Z y p x v 4.A f n z.b.#.P - ",
"] ] ' L.) f k 6.s.i.A.qX5./ $.R.~.C.X.8 ! o.P o.O.%.%.+.%.h.%.` O.o.U ~ %.%.O.T K K P b 9 | N.G.C.2.g x =.3.,X4Xa.v L ` ] @.n - ",
"8.7.' @.~ ~ ,.A.A.=X=Xd.qXt./ 9.V.C.9.w ! L.h.J.^.XX^.oXXXXXT.L.T.Y.L.L.XXoXQ.^.H.h.H.Y 9 C R.C.2.B Z =.4.-X5X4XS.4.w.@.` ` h e ",
"8.] s h b n *.=X=X=X<Xs.A.qXy./ 9.X.2.w / I.%X/.OXOX#X&XpX&X*XOX_.XXT.XXoXoX/.W.H.W.K.Y 9 { C.G.A x F 4.S.A.4X5X4Xi.( n P h - s ",
") s - s - $ 3 >.A.s.=X,X2X4XsX5.^ 2.X.i g #.H.T.^.XX#XoXpXpX$X#X^.Q.I.T.#.O.H.I.H.O.O.j i $.9.^ D D 4.-X=X-X=X5XA.3.O e s & & e ",
"h t ) <.k t z . >.:X<X,X3XS.S.sX4.^ X.S 8 g o.V.T.XX&X#X#X&X%X%XOX^.I.O.} #.#.L.#.Y g i { X.^ D v 3.D.6X<X:X>XS.u.x O A 1.m h = ",
"( 1.n.x./ S ^ j 3 >.<X:X].].,X,XrX3.N  .V 0 g ` V.Q.@XpXpX$X%X!.L.T.O.~ #./ 0.#./ g u I V.^ D c 4.4X4X4X=XS.i.3.Z ; i ) x.m.w.m ",
"w.n.m.x./ | V.^ x o >.<X2X4XwX,X`.rX4.j ^ B q i ] Y.}.$X%X%X!.!.W.J.O.` %.O.#.L a i } 2.^ A v t.>X2X-X4X=Xa.t.c t B y ) m.m.m.w.",
"w.x.n.n.) } | } k t   6.5X5X7XiX=Xi.rX;.d ^ S 0 i ` 0.T.%XoX/.!.W.j.h.g.h.O.` g u C ..L Z c -.S.4XwX6X=Xy.>.Z t A A p ) m.).n.1.",
"w.p.n.n./ | N.$.I d u $ e.,X,X7X:Xi.A.iX3.j  .S q i ` h.XX$XoXQ.E.h.k.h.h.P g u M I V Z c ;.=X:XD.>X5XF.t.D d B S C j :.x.n.x.<.",
"w.r.).n./ } N.| | C < t 4 6.:X=X>X:XS.=XaX>.V  .B 0 i ` h.^.oXQ.W.b.h.O.P g i J I a Z D 6.>X,X>X-X].].i.F d S ^ } ^ C 7.r.(.r.<.",
"w.w.n.w.! | N.B.N.E V : 0 7 >.>X`.<X-X=X-XrX5.k { B u 9 o.P.W.Q./.E.k.Y e 9 d I > x D q.-X5X0X5X6XS.y.D d ^ {  .V. .A 7.c.n.r.<.",
"1.7.n.p.) | E { ^ N N N 9 r 6 :.:X<X:X5XD.S.sX4.B E I 0 t %.T.Q.E.j.Y e 9 d N : p F e.3X5X3X2X2X`.t.F d S  .{ S H S H :.w.p.n.<.",
"q.q.n.p./ V u O 7 7 q d k & 8 6 ,.wX<X,X3XA.-XiX6.k { V $ a @.@.R ` t 9 : f > p F 4.5X5X2X{.D.e.4.D N S B 9 8 8 8 9 j @.w.n.w.7.",
"p.r.c.p./ y 8 b b s & 9 : d $ 7 4 4.2XD.3X>XS.D.rX6.N  .^ 0 9 8 9 q t < < @ Z ) 0.3XeX3X].{.e.3.x d { S 9 & n ! / 9 j @.w.n.r.7.",
"x.r.n.n./ y $ K k.Y 2 & $ : y r i 6 3.].`.D.,X>X`.0X3.V ..2...X.} k : d & i F Z.eXwXwX3X>X`.S.Z < { V 0 & ~ @.z.0.& t 7.r.w.r.7.",
"r.n.n.n.! t 9 K Q T K s $ 7 t C j p 5 5.2X5XrX5Xi.i.rX6.V X.9.$.| E d & l x :.`.3X5X5XwXS.4.x : N C 9 & n ] 0.z.@.& t ) r.n.r.1.",
"r.r.{.n.^ : 9 K T k.' K b 9 0 V  .V i 5 i.uX2XZ.`.].>XsX3.k ..V.} V s j x F S.>X:X>X>X:Xy.j > V M & & P R ] c.8./ 9 8 ) r.n.p.7.",
"w.c.[.'.! ; 9 , Y Q Q O.T K e 8 }  .d j 5 y.2X:X].].F.`.iX4.L X.$.k x D d.:XS.2X4X:Xi.t.x & V V $ & ~ ' #.#.#.l.] a % ) c.n.c.7.",
"r.n.{.).! ; 9 b Q +.k.f.J.k.Y 9 u { | j i 6 4.4XD.3X{.A.>XiX4.a g x =.t.7X3Xi.:X2XA.3.x # B N $ & , ' ' O.b.l.` U & ; ] {.{.r.8.",
"Z.(.'.)./ ; 9 2 Y f.f.E.J.J.h.T g 8 } | V l 4 ;.>XD.].2X`.S.iX3.x c ;.-X,X(.].>X:Xy.j : B d % 9 P ` #.' R ' #.%.P 9 & 7.).{.c.w.",
"c.(.'.'./ : 9 b Q +.+.J.J.W.E.k.` g 9 } 9.{ p 6 ,.2X5X2X].,X7X5Xd.d.;X=X].`.s.s.A.x : C N O * ` O.#.g.[ #.@.8.P.~ 9 r ..U.{.(.w.",
"U.'.[.)._ t 9 b T +.f.J.J.W.J.j.+.O.9 9  .G.B i   6.=XS.7XiX3XF.Z.S.6X9X5X:Xi.4.Z : I V $ $ ` h.z.#.g.0.' g.8.#.` 9 % ..n.{.{.w.",
"n.{.[.m./ r w b / +.k.k.j.J.j.P.Q.L.` & u 2. .M i o *.,X6XwX2XD.`.a.<XrXeXS.6.v > I I & & P %.Y.Q.c.l.g.@.%.%.#./ 8 % @.(.{.'.r.",
"(.'.[.'.^ r 9 b +.+.j.k.j.k.' g.^.oX%.U 8  .G.G.j i 6 u.-X>X2XD.2XS.;X4X4Xy.x < C I N $ J o.}.}.Y.U.}.0.#.@.@.8.( & O @._.[._.c.",
"{.[.|.).! y q K f.P.z.h.k.O.O.O.#.P.P./ 8 2.G.G.S t 8 z :X3X].].S.-X;XA.;XF # N C E I $ L h.!.}.}.(.U.z.@.) ] ' P 9 O ) '.[._.U.",
"c.'.[.n./ y 9 o.b.P.j.j.#.k.' O.f.o.%.o.4 B H S C & p z :X5X:X=X-X>X:X=X9X>.% I { N M $ J O.XX}.}.U.r.l.c.l.%.O.P 9 ; @.U._._.8.",
"7.n.'.n.! y 9 ' h.P.P.f.O.' ~ %.' P b n 8 r p ; % q c _ n.5X:X<X4X:Xs.=XA.9X3.f C { B $ L O.Q.^.XXz.U.z.h.P.z.h.P 9 : @.c.(.c.:.",
"1.n.m.n.) B & U z.T.h.b.b.h./ ] O.P f u r r r X 8 c -.(.>X9X<X>XA.r.:X`.A.y.9X*.y ^ I 8 a O.J.XXoXY.z.o.h.J.P.H.U 9 p @.c.c.c.] ",
"<.r.n.c./ B 9 U h.!.z.L.h.z.O.] ` b 8 u r B O i =.t.=X:X,X0X4X`.(.p.:X5X;XA.i.wX4.B } I 9 9 O.P.^.T.L.O.H.I.I.P.' 9 B 7.c.).).8.",
"1.<.n.w.P y 9 U h.P.P.h.z.` #.#.b 0 0 y B t z D t.<X<X:X2X2X].-.v t.<X;X4X<Xa.a.rX6.P } / 9 e %.XX^.L.T.P.I.L.P.O.i B @.c.U.n.<.",
"1.<.w.1./ d 9 U f.L.I.h.L.z.` ~ q 0 y j r l D 5.-X=X<X<X].i.3.l 7 3 ;.4X>XS.A.=X,X9X5.S B.&.9 g h.I.^.L.P.I.T.I.O.9 j @.w.v.x.<.",
"<.1.w.:.~ M & U h.E.j.h.P.P.#.t i A A t l F 6.4XuX-X9XiX>Xu.x % $ 8 o y.5XA.:XD.A.i.9X5./ B.} 9 g 0.T.^.}.}.T.W.0.& d @.8.x.l.[ ",
"1.w.x.<.] V 9 O.f.P.E.J.h.h.e u  ...j D F 5.-X4X4X-X4X;Xu.c t p j r 5 o 3.;XA.s.s.i.A.eX4.} N.| 9 9 H.I.^.^.P.Q.h.9 N @.1.w.l.( ",
"<.1.x.1.) A 9 O.J.I.W.J.+.g i | 2.V Z =.3.-X6X4X=X-X-XG.=.u j Z G A g i 6 =.A.s.=X=X=Xa.qXy./ N.| 8 g %.L.^.T.W.L.t V 7.<.w.1.( ",
"<.<.d.1.! j 9 Y %.I.K.+.g t  .2.A l F 4.S.D.4X4X4X-XA.x j Z Z S G  .A j i 3 >.-XA.A.<XA.A.rX4./ 2.S 9 9 %.T.OX^.h.i V @.] w.<.[ ",
"( <.r.1.j O 9 U O.O.o.g q ..$.^ D c 5.-X>X=X=X5XA.u.x y Z y y j p A G ^ V l 3 =.=Xs.:X,X>X3XaXe./ 2. .u t #.P.P.0.i A ] :.7.8.<.",
"<.<.w.w.h % 9 L L P s i I X.^ Z v ;.-X6X-X:X:XS.t.c d V d u 8 o 7 w u { V.L i . -.:X:X<X5X`.`.aX4.^ X.A 8 j / / ` i A <.( w.w.[ ",
"<.[ w.1.g O g i 8 u j ^ N.^ A c 4.2X0X4X-XS.i.3.D r A p 8 9 > a h n t 9 ..V.{ x 3 >.<X:X].:X,X,XqX4.N  .A u u 0 0 i A 7.[ w.<.( ",
"[ :.q.[ d t A p A { | 2./ c c e.>X2X4X<X=Xa.t.c t B p 8 9 L U / #.#.O.t 8 ..N.I z 3 d.4X2X4XwX,X=XrX4.j E C S ^ G 2. .<.1.w.<.) ",
"<.:.q.:.N B .. .} X.X.L Z c -.S.4X6X4X].t.3.c t A B 0 $ a n &.L.P.~.J.U 9 8 E } k i o 6.5X5X7XiX=Xa.rX;.d ^  .G.G.G.S ) <.7.w.( ",
"( ) 7.<.j d {  .I ^ V x c F A.D.>X3X5XA.t.D a V d w $ ~ ~ @.O.8.T.OX&XI.%.i i I ^ d q 7 e.,X,X7X>Xa.a.tX3.B  . .H 2.S / q.q.7.[ ",
"<.( <.( g d S } I < x x -.Z.4X-X2X5X].i.F d ^ j $ & L #.7.L.Y.r.OX/.&XOXI.O.e 9 I C < u 7 6.:XS.>X>XS.=XiX3.N  . .S B / 7.q.7.<.",
"<.<.<.( f < I I > j x ;.Z.].>X=X2XS.i.D d S N $ & P @.U.U.0.z.@.U.%XoX$X^.P.` : 0 N N : 0 4 6.:X:X,X-XS.=XiX4.B ^  .{ _ <.w.7.( ",
"[ [ <.:.d < k : x F :.p.D.].Z.A.A.e.F d A S 9 9 U @.Y.Q.T.U.%.0.0.OX#XoX^./.%.Y e 9 d V t 8 6 ,.=X,X:X5XD.S.sX4.j ^ C / <.8.7.( ",
"_ ( :.( s @ > j D 6.5X,X].F.].A.i.D B S Z % r ` L.XX}. XL.8.z.U.C.T.T.Q./.^.^.J.Y 9 9 d B & 8 o 3.wX<X<X3XA.-XiX6.d M / 1.1.( m ",
"0.@./ ( & X x -.r.,XwX5X3X].(.y.Z d { S 9 & ~ 0._.@XXXoX}.l.T.h.8.U.XXoX/.W.J.J.k.b & 9 : a % 5 7 t.>X`.3X>XS.:XrX;.% k ( ] (.0.",
"P.z.] [ n & Z U.8X7XeX7X>X].u.Z a { S 9 9 U @.P.oXc.T.Q.T.T.oXT.z.Y.}.oXW.^.J.J.j.R 2 9 8 t y & q 6 >.2X].D.>X,X=X>XF 8.[.8X+Xo.",
"g.O.R #.P.R v `.5X5X9X5X`.4.x : V N.S $ n ] 8.U.T.U.v.U.T.XXP.T.XXXXT.T.!.J.J.J.j.T K s 8 r B C j l 5 y.-X6XuX5Xi.;._.+X+X_./ b ",
"z.' T Y K b ;.:X:X<X,XS.y.x > N I | ^ $ f ` w.g.z.b.z.h.h.J.h.f.I.^._.Q.K.j.J.k.k.T T b 7 B { { { N i 4 i.uX3XS.Z.q.L.U./ o.~ P ",
"Y.z.j.h.' O...i.<XS.i.t.x & V { E { { % s L m ( ] ' / ~ P Y o.o.O.o.o.O.o.P Y K J K J b 8 V | } C.} y p 5 y.-XS.4.r.@XT.#.L.@.~ ",
"U.z.h.I.P.h.O.) y.4.-.l # d ^ | E I N 9 i 9 9 9 9 & 9 & 9 t 9 i g i i i g 9 t 9 8 9 & i i U $.X.C.N.} N i 6 6.i.p.+X+X%.h.g.' n ",
"z.#.#.L.T.H.+.B._.] O + : y V { C B j @ * O o ; % r t ; ; : ; ; ; O ; r ; r & @ % @ & t < N W | W E E C ; p {.{.8XU.o.%.L.#.n b ",
"z.l.@.h.I.P.Q %.@.b 1 ~ @.@.7.0.8.@.) ) ) ) ) @.7.0.9.7.@.@.@./ @.@...8.0.0.7.&.@.@.@.@.#.8.#.@.7.#.@.8.~ 0.+XU.T.L.O.7.L.' P s ",
"Y.l.L.T.H.K.H.Q Y U K <.).).n.c.x.w.w.0.m.l.l.c.).Y.).(.c.(.).(.'.[.[.'.[.|.'.m.m.'.n.n.m.v.x.M.1.l.l.1.<._..X` %.%.O.P O.O.~ n ",
"z.h.` %.T f.Q f.Y R b ( c.m.n.m.n.v.v.l.v.v.v.Y.). X'._.'.'.{.'.{.[.[.[.yXyX|.'. Xm.n.n.m.m.M.M.l.v.m.x.8.+XU.&.0.` P ' ' #.( b ",
"z.L , J K K 2 J , , J P w.n.c.n.c.m.c.l.v.Y.Y.v.v._._._._._._.].|.[.|.|.|.[.|.|.,X Xn.n.m.m.x.x.x.m.v.1.c._.! U P J , P n b n f ",
"b # - 1 = 1 = # = = 1 s ( 1.1.w.l.7.7.1.8.8.8.8.@.8.l.7.c.c.c.U.(.n.(.c.c.c.n.n.x.m.1.w.x.1.<.<.1.M.[ ( ] V f d > s e = = # = s "
};
