/* XPM */
static char *m_0101668269989[] = {
/* columns rows colors chars-per-pixel */
"64 64 220 2 ",
"   c #393E3D",
".  c #353C3A",
"X  c #333932",
"o  c #3E453C",
"O  c #3F493B",
"+  c #3D4534",
"@  c #4E4A35",
"#  c #44463D",
"$  c #444B3C",
"%  c #4B4B3D",
"&  c #464737",
"*  c #524D35",
"=  c #534E3C",
"-  c #46513E",
";  c #4C533D",
":  c #52533D",
">  c #5B553D",
",  c #52593D",
"<  c #59543B",
"1  c #625B3E",
"2  c #363F40",
"3  c #3A3F42",
"4  c #3C4342",
"5  c #3F4948",
"6  c #394342",
"7  c #424641",
"8  c #454B44",
"9  c #4B4D43",
"0  c #444D49",
"q  c #4B4F48",
"w  c #524E43",
"e  c #465241",
"r  c #4C5344",
"t  c #4C5944",
"y  c #465149",
"u  c #4C524A",
"i  c #4E5A4C",
"p  c #535344",
"a  c #5B5543",
"s  c #535C45",
"d  c #5C5945",
"f  c #52544A",
"g  c #5A5649",
"h  c #545C4A",
"j  c #5C5B4B",
"k  c #4E5951",
"l  c #4B5554",
"z  c #535752",
"x  c #525D54",
"c  c #5B5D52",
"v  c #545D5A",
"b  c #585F58",
"n  c #635C45",
"m  c #625E4B",
"M  c #675F54",
"N  c #576145",
"B  c #5A6446",
"V  c #55624A",
"C  c #5A644B",
"Z  c #5D6A4D",
"A  c #556256",
"S  c #5C6452",
"D  c #5D6A52",
"F  c #56625A",
"G  c #5A645C",
"H  c #5D6B5B",
"J  c #5F7358",
"K  c #656144",
"L  c #6B6345",
"P  c #64624D",
"I  c #6B644C",
"U  c #626C4D",
"Y  c #6E694C",
"T  c #71654C",
"R  c #736B4D",
"E  c #796E4E",
"W  c #64714E",
"Q  c #69704E",
"!  c #76714F",
"~  c #7E734F",
"^  c #646452",
"/  c #6A6553",
"(  c #636C53",
")  c #6B6A54",
"_  c #6C655A",
"`  c #6D6B5A",
"'  c #64645C",
"]  c #736D54",
"[  c #786E54",
"{  c #72675D",
"}  c #726C5B",
"|  c #657354",
" . c #6A7555",
".. c #6C7956",
"X. c #66755A",
"o. c #6A755A",
"O. c #6D7B5D",
"+. c #65785A",
"@. c #757154",
"#. c #7A7354",
"$. c #7E7856",
"%. c #75725D",
"&. c #7B755B",
"*. c #727C5C",
"=. c #7E795C",
"-. c #5B6561",
";. c #586562",
":. c #626663",
">. c #636C64",
",. c #6B6C63",
"<. c #656D6A",
"1. c #6A6F69",
"2. c #746D62",
"3. c #7A6E64",
"4. c #6C7B61",
"5. c #66726B",
"6. c #6B746C",
"7. c #6E786E",
"8. c #677067",
"9. c #767263",
"0. c #7B7365",
"q. c #727D62",
"w. c #7D7A64",
"e. c #74756A",
"r. c #7C746A",
"t. c #737B6F",
"y. c #7D7A6C",
"u. c #6B7672",
"i. c #6D7A72",
"p. c #647670",
"a. c #737B74",
"s. c #7E7E71",
"d. c #737D79",
"f. c #7A7F7A",
"g. c #717673",
"h. c #827A56",
"j. c #80755A",
"k. c #837C5C",
"l. c #8A7E5C",
"z. c #807553",
"x. c #817567",
"c. c #827C63",
"v. c #82756B",
"b. c #837B6D",
"n. c #897C69",
"m. c #857D71",
"M. c #8A7E72",
"N. c #816F65",
"B. c #74815D",
"V. c #7A835F",
"C. c #748362",
"Z. c #7A8967",
"A. c #7C8276",
"S. c #76827C",
"D. c #7B837C",
"F. c #7E8A7D",
"G. c #7F8875",
"H. c #6D8170",
"J. c #85815D",
"K. c #8B825D",
"L. c #8E895F",
"P. c #868163",
"I. c #8B8564",
"U. c #8F8A66",
"Y. c #85826B",
"T. c #8A846C",
"R. c #8D8A6A",
"E. c #828E64",
"W. c #928B65",
"Q. c #928D6B",
"!. c #918564",
"~. c #86956A",
"^. c #96926E",
"/. c #9B946F",
"(. c #858273",
"). c #8A8374",
"_. c #8D8A75",
"`. c #81867D",
"'. c #8C8579",
"]. c #838A7D",
"[. c #8D8A7B",
"{. c #878876",
"}. c #928D73",
"|. c #918B7C",
" X c #91877B",
".X c #88907A",
"XX c #969172",
"oX c #999474",
"OX c #9D9973",
"+X c #96947D",
"@X c #99957C",
"#X c #9F9A7A",
"$X c #A19C7D",
"%X c #7C8582",
"&X c #7D8A82",
"*X c #7B8886",
"=X c #828682",
"-X c #838C83",
";X c #8A8D85",
":X c #848D8A",
">X c #888F88",
",X c #839085",
"<X c #8B9285",
"1X c #86928A",
"2X c #8B948B",
"3X c #88998D",
"4X c #92948C",
"5X c #969786",
"6X c #8C9693",
"7X c #8D9A94",
"8X c #929791",
"9X c #959B94",
"0X c #949D9B",
"qX c #9A9F9A",
"wX c #928F80",
"eX c #A39F82",
"rX c #8FA096",
"tX c #97A19D",
"yX c #959FA0",
"uX c #9BA3A2",
/* pixels */
"c.).n.b.T.x.Y.Q.).b.w.^ 3.M.M.m.M.M.m.b.).).n.w.x.Y.Y.n.b.T.(.y.m._.'.M.'.).M.M.M.M.M.m.v.v.3.3.v.3.N.{ / y.(.(._.P._.P.b.(.T.} ",
"#.j.] %.c.x.=.I.w.=.a m b.M.).M.b.M.).).M.).b.x.x.c.b.b.b.b.b.0.e.m.'.M.m.m.M.v.v.M.m.m.v.r.3.N.3.r.3.3.g m ` / } %.=.#.=.c.I * ",
"] [ n I [ T @.#.Y K : _ M. X X XM.).'.(.).(.b.b.b.b.n.(.(.T.m.r.b.m.[.m.M.M.m.b.M.M.'.'.M.v.v.v.v.N.3.3._ g w * * > L L R K a > ",
"&.0.] [ #.} c.c.@.I n 3.M.M.M.).n.x.n.b.n.y.x.w.9.w.0.w.v.b.b.w.0.r.v.m.m.m.r.v.m.v.M.M.M.M.v.3.3.v.r.1.{ I P w n Y R R #.@.m > ",
"&./ I [ j.0.&.I P n a g I P / / ) ^ P P j P j m P I ^ / ^ P P g g g P ^ ^ ^ ^ P ^ P ^ m c j g h z M g j 9 g m & : I =.#.$.] a a ",
"x.} I [ n.c./ d n n h r )  .| ..*.O.( t e t e t t s V s s s - $ ; t s s s s s t e % r $ t t t V h r t $ + # % & @ g ] P.P.k.L d ",
"} } R [ #.m d f :.' -X6.) V.V.E.~.~.q.u 9 9 8 % $ 7 8 q q u p f ; q 9 9 9 w % 8 8 % % 8 f X.B.O.q.X.A r i k S 6.S d j c.c.&.I w ",
"} } [ n.) d j 6.S.d.D.7X7.) *.E.~.Z.O.8 / @.I @.#.k.h.#.k.f j @.=.j % ] =.=.@.E L L I n q  .C.B.Z.4.p x ;.6.:X1Xd.c I } ] &.m w ",
"x.%.} %./ / 1.S.D.%X%Xg.6Xu.( *.Z.Z.q.7 / P.J.K.Q././.oX}.h s =.I.^ q %.XXOXR.^.J.k.J.R q U Z.Z.4.C A ;.6.%X2X1XF.5.0.%.} } g w ",
"0.} a d n n -.*Xd.%X:Xf.%X0Xi.) *.q.4.7 ) I.OX/.OXOX#X$X}.h P Y.P.S q #.Q.OX/.W.J.W.L.! 9 | Z.O.D x G 6.D.%X1X2X1Xi._ n L g = a ",
"} p = p w # 6 <.%Xf.%X;X-X>XuXi.^ 4.+.u f &.P.T.^.XX#XoX}.j c R.P.m r @.@.=.J.I.k.#.@.h u B.q.( F A 6.F.&X%X&X:XS.p.o w g & % = ",
"g p ` 2.j ; u . <.=X:X;X2XF.`.0X6.( *.Z y p @.V.R.XX$XOXT.c ^ W.W.^ 9 P ^ =.&.P.&.] w u ( 4.( F v 5.*X3X-X=X-XD.p.A O ^ 3._ g @ ",
"_ 3.m.v.) | ( z 4 1.:X=XF.].;X;X0X6.h X.Z 0 q ] C.^.@XeXXXg j k.k.j # a ] ] w.&. .p u U B.( b v 6.,X3X1X*XD.a.5.A e t ` v.m.v.M ",
"r.b.M.v.^ o.B.( i 2 <.-X,X1X8X;XF.0X6.s ( V q q } T.}.#XQ.f j k.l.j q a @.#.&.P p q X.O.) A v 6.-X-X&X:X%Xd.u.b r V t ` M.M.M.e.",
"r.y.M.m.) .... .j u   6.2X2X4XqX%Xd.tX>.s ( Z y u ] w.R.U.f j k.k.g 9 K h.#.] f q Z o.^ A k :.F.1X3X3X&Xi.<.F e D D i ` v.'.m.3.",
"r.s.m.m.) ..B.*.U s y # t.>X;X4X=Xd.f.0X8.h X.( 0 f ) k.T.f g k.h.a % L $.I u u N U C A v >.%X&XF.-X4XA.6.F p V D Z i 2.v.m.v.2.",
"r.y.(.m.) ..B.....U : u 4 1.=X%X=X-X%X%X0X<.C X.C y u ] $.f g k.l.g % I T 9 p C U s b F 8.-X>X-X,X-X].i.G s Z Z X.W V 9.y.(.y.2.",
"r.r.m.r.^ +.B.V.B.W B ; 0 4 6.=X=X-X&X%X&X0X7.j D C y e #.f f k.I.m 8 T p q s U : k A e.,X2X6X1X<XF.a.F s D X.+.B.+.D 9.b.(.y.2.",
"3.e.m.s.) ..W | ( B B B ; 0 4 ,.=X-X=X2XF.D.uX6.h W Z 0 g f j k.l.n p p 9 p B ; i -.t.<X<X<X<X,X].e.F s D +.| S ( ( H 2.r.s.b.2.",
"e.e.m.b.^ V u # 7 7 u p s % 0 o 1.8X:X>X<XS.&XtX6.N | B ; 8 m 9.] m u u ; N : k F 6.2X<X<X`.F.t.6.F s H A 8 % 8 0 e V %.r.(.r.9.",
"s.y.m.s.` t 8 n n n % 9 ; ; # 8 4 6.-XF.<X&XD.F.tX8.V o.D i u q 8 r u , , & x >.y.<X9X4X].`.t.5.x s | ( q % P ^ ) % h %.e.m.r.0.",
"v.y.m.m.( s & T z.T 1 # 8 ; t e u 6 8.,XF.`.-X-XD.6X1.B o.X.o.4.W d - s ; u G Y.5X7X8X<X].].S.S ; | C 7 8 I %.w.b.% r 9.v.m.e.9.",
"y.m.m.m.^ ; 9 L z.E n n # 8 r C V u 8 u.,X3XqX2Xa.a.0X6.C 4.*.*...Q s % k x ,.`.<X>X2X8X].6.b ; B Z r % n } x.P.} % u o.y.m.s.9.",
"r.s.{.(.^ ; 8 L E z.z.L n 9 0 C | S u 5 a.7X<XA.`.].].tX6.g o.C.@.B s h x G D.-X-X-X-X=X7.z ; C N % 8 I ] } w.0./ r 8 ` y.m.b.2.",
"0.b.[.{.) - 9 1 Y ~ ~ #.E T w 0 X.X.s t 5 i.,X].F..XA.`.qX6.P 4.4.j b b g.-XD.,X1X%Xa.u.x ; C B # % T } &.$.0.c.} p $ ` (.m.b.9.",
"y.(.{.).) - 8 1 E ~ h.l.K.h.R 9 u | *.s u 6 u.1X`.<X{.S.-XyX6.p p A ;.u.<X<Xa.=X,Xa.6.x $ s N $ % n [ [ j.n.x.[ T 9 $ %.(.{.b.9.",
"s.(.[.'.^ - % 1 ! h.$.!.l.K.l.@.r q |  .B k 4 >.-XF.,X,XF.D.tX5.x v <.&X;XD.=X-X-Xa.z ; B N # % I ] &.] T } &.j.I w % 9.(.{.Y.r.",
"b.(.'.).) t 9 n ! #.$.l.K.!.!.h.] r 9 ..q.X.i 6 1.-X3X]..X;X4X2Xa.6.*X%X].{.f.f.d.A % Z N # # ] $.%.j.] [ &.9.k./ 8 - o.Y.{.(.e.",
"(.{.{.).) y 8 K Y R R E ~ z.#.E $.h.p u X.C.S y   6.&XD.4XqX<XG.A.&X6X7X2X`.y.u.S ; U B 9 = [ k.%.T ] ] I / / [ @.9 $ %.m.{.(.0.",
"M.{.[.M.` e q 9 q p u f f p p w r p u 7 u O.+.V y o -.:X2X7X-XF.].S.*XtX9XD.1.x ; U U r $ % p : p % 8 9 9 w w 8 r u $ %.(.|.).b.",
"(.{.[.'.^ ; u w : p p p p % % w f c p s 0 +.H.4.h u 6 u.&X-X,XF.,XS.*X&X,Xi.b : U U C $ p a p g f p g w % 9 9 % p 9 $  ._.[._.b.",
"[.[.wXM.^ t u L E ] R T I I n T I #.=.@.8 4.C.B.D p e y -X<X-X`.D.F.*XS.*XG @ N B W U # I #.c.k.x.} 2.] M m m M I 8 O ` _.[._.(.",
"m.{.|.m.) s 9 #.c.j.z.z.] [ n R R I #.@.5 i J D Z % u z &X2X=X%X=X&X&XS.7X<.% U W B s # L $.R.n.T.0.9.9.&.} ] R T 9 - %.Y._.).0.",
"2.m.'.M.^ t q m m c m p w w w j p % r g e - t O & u v ' m.2X=X:X6X=Xf.=Xd.7X8.d Z | V 8 a d m m P j j g g j g g g 9 e %.b.).(.%.",
"3.b.).r.` C 9 9 9 q 9 8 9 w 8 7 0 8 0 l y e - + 0 v :.s.=X7X:X-XS.s.=X`.i.d.6X-.t | U u 9 p r r w % % & % 9 e 9 w f s %.b.T.b.} ",
"3.r.m.y.` V 8 R #.#.I I T m n n n > u y - V o l ;.p.=X-X-X7X>X`.(.y.=X1X*Xd.a.7X6.N | Z r p ! h.$.[ / n I @.R R R 9 h 9.v.(.m.0.",
"3.e.v.v.^ s 9 Y $.k.j.&.&./ [ #.n q 0 t h t u F u.:X:X%X,X-X`.:.z u.1X&X1X:Xd.a.0X6.P ..W 0 p =.Q.R.k.P.k.P.=.k.#.9 h &.b.M.m.3.",
"3.2.r.2.) , $ Y k.P.W.k.P.w.] / u 8 i t t k F u.-X%X:X>X,XH.u.k 7 2 <.1X>X%Xf.&X;X6X7.P V.@.q p k.R.Q.P.I.R.T.U.#.q h %.r.b.v.3.",
"3.e.r.2.) N 9 Y h.W.k.l.!.U.#.9 y S C r k G >.1XrX&X6XtX&Xu.A $ % 0 . i.1XD.%X&XS.a.6Xe.) V. .9 f =.Q.^.Q.Q.R.^.w.8 s 9.0.n.0.{ ",
"3.r.v.2.} C 9 #.h.I.K.K.k.k.u 0 X.4.h A G 6.,X3X&X*X3X&Xu.v r t i 9 y 6 8.%XS.S.f.a.S.6Xt. .*.*.q 9 =.Q.^.XXI.Q.k.; B %.2.0.0.{ ",
"{ 0.v.2.) Z 9 $.K.U.W.K.$.p u ..4.B A ;.5.%X3X,X&X*X&Xp.;.i x A H S r u 6 ;.S.D.S.%X%Xd.7Xa.^ B.o.8 h &.P.^.W.W.J.u C 0.} 0.3._ ",
"2.2.r.3.' h w ) =.U.L.h.p u ..O.C x G 7.D.%X1X3X1X&XH.F i D V S H o.H f u 6 <.&XS.%X:Xd.d.0Xi.) *.D q 9 =.R.OX^.k.f C %.2.0.3.,.",
"2.2.r.e.h O 9 Y #.#.#.p 0 o.B.( F b 6.&X-X%X&X1XS.i.x r V i u V i C H | P k 2 -.%Xf.%X;X-X1XuXg.^ q.| 0 u @.I.I.=.i S ` { 3.0.2.",
"{ 2.r.r.f $ 9 m ^ I p u U *.H A v >.&X3X&X=X;XS.p.A s C h q 8 # # 0 f ( C.C l X -.=X:X-X<XF.`.yX6.( O.D y f ) ) ` u S %.{ r.e.{ ",
"2.{ e.0.g + i u q q i ( B.( F v 6.,X7X1X%XD.f.5.b $ D i u u % p j h u q | B.| z 2 1.>X%X`.-XwX;X7X6.B X.Z u 0 0 0 l D 9.{ e.3._ ",
"{ 2.e.} g t Z i C X.+.O.( A v 6.-X,X1X:X%Xa.u.b t V i 8 q p r I $.j f r 0 ..B.( z 3 g.1X-X<X8X;X%X0X6.s D Z D ( H X.X.2.3.r.2.} ",
"} 2.e.,.j N +.+.+...o.P S v >.D.1X2X1XF.u.5.v e D V 7 # g 8 p ] =.h r @.9 0 U  .h u o 6.3X2X4XqX%Xd.0X>., | +.H.C.4.D ) 2.9.9.` ",
"_ ` 0.,.j s D X.W ( C b v G D.F.-X<X2XD.u.F p V h 7 # I / 9 % / P.C f k.k.u u U ( g y o 7.>X;X4X-Xd.f.tX8.s X.+.+.4.D ` e.e.2.2.",
"2.,.` _ g t W  .U : A k >.A.1X&X<X<X].i.G s D h $ % M 0.} 9 p ` R.^ f J.U.#.r q Z Z , y 7 1.=XD.-X=X%X%XyX<.B | X.H Z ` 9.9.9.2.",
"2.2.2._ g , Z U : h x ' S.].-X%X,XD.a.F s H B 8 9 L %.P.%.q p c =.^ f P.W.I.] 9 q V B ; 0 4 1.-X=X-X-XD.-X0Xi.h ( ( Z ` 2.e.0._ ",
",.2.2.,.a , N ; x G ,.s.F.].D.a.d.a.G s D D 8 % I %.T.Q.&.u p ^ %.^ f w.R./.h.! w q s N 9 0 4 ,.=X-X=X2XF.D.uX6.V Z Z ( 2.e.e._ ",
"_ _ _ { p - : h F 8.2X<X].F.].D.i.A V ( A $ % ] Y.}.}.}.#.9 f #.9.h r #.W.^.W.K.R 8 q s N % 8 2 6.7X:X-X<XS.&XtX6.d N ) 3.} _ M ",
"0.%._ M 9 X z >.y.4X9X4X<X].(.i.A s | D q % / w.}.@XoXoXx.9 g ) } j f =.Q.W.K.K.z.n w 8 r s & 8 4 u.-XF.<X&XD.].9X<.$ C { } (.w.",
"P.k.[ } m = A b.4X>X9X2X-X].7.A ; X.D 8 % I %.Y.oXP.).U.w.f j =.%.j f =.U.W.K.K.l.R 1 = 7 t t $ q 4 8.-X].].-X-X%X-XG 0._.5X5X] ",
"k.#.R &.n.R c D.<X2X2X2XF.i.x ; C B.( # m [ w.n.T.Y.n.T.=.f g #.T.m 9 @.!.!.K.l.h.E L a 8 - N Z h l 5 7.&X3XrX6Xa.>._.@X+XT./ n ",
"c.] E R L 1 >.-X-X>X;X`.i.f ; C U ..( # d ` w.0.c.n.c.k.[ 9 : R K.j u &.K.K.K.h.z.z.T n 7 V +.X.| B u 5 a.rX1X(.S.e.P.Y.) #./ I ",
"}.c.n.k.#.#.4.a.:X%Xa.u.x ; N | W | Z # g I I ) } [ ) I I p p ] #.C q ] #.Y Y K K K K n 8 U  . .C.| s i 5 7.-XD.e.y.@XR.&.P.%./ ",
"c.k.h.I.P.&.#.) u.6.>.z $ s ( ..W W Z 9 q r 9 9 9 9 r 9 r u u i f f f u p 9 p 9 8 9 : q u I *.*.Z.B...N u   5.a.s.+X+X=.k.j.[ m ",
"x.=.=.P.!.J.V.l.T.} o + ; s B | Z V N $ + o O 8 $ % ; - - e ; $ - - O e - ; $ $ $ $ & t ; B Q o. .W W Z - i {.[.5XY.@.=.I.#.I a ",
"c.w.@.k.U.U.@.=.%.n < / %.%.9.w.0.} ` ) } ` ` %.%.w.w.9.%.%.} o.9.%.%.q.w.w.%.%.%.%.%.9.&.0.&.%.0.&.%.0./ w.+XY.R.w.=.%.P.] M n ",
"T.c.P.T.J.L.h.~ Y Y L 2.m.(.M.b.r.v.r.r.M.x.x.b.(.(.(.(.m.(.(.b.{.[._.'.|.|.'.).M.M.m.m.M.v.N.N.3.0.x.3.{ [.}. .=.w.&.I [ #./ M ",
"x.k.] =.~ h.~ h.R T n { m.M.m.M.M.b.n.b.n.M.M.(.'._.'.}.{._.'._.;X[.[.[.+X<X|.'. X'.m.M.M.M.v.v.v.n.M.v.0.+XY...c.] L ] ] #./ n ",
"c.P > K K L 1 K > > K I r.m.b.m.b.M.b.x.n.T.n.T.T._.).)._._._.[.|.'.|.wX|.[.|.|.;X'.M.v.M.M.v.v.v.M.n.3.b._.) U P K < L m n m n ",
"m @ = < * < * @ * * < a _ 3.3.r.r.r.} 3.0.0.x.%.9.0.c.x.b.Y.y.b.(.m.m.b.b.m.m.b.v.m.r.r.v.N.2.2.3.N.{ { } C a d : a a @ * @ * a "
};
