/* XPM */
static char *m_0031668273728[] = {
/* columns rows colors chars-per-pixel */
"64 64 134 2 ",
"   c #2E3444",
".  c #333745",
"X  c #343946",
"o  c #303749",
"O  c #343B49",
"+  c #3B3D4A",
"@  c #374045",
"#  c #3C4446",
"$  c #3C454A",
"%  c #3E4B4C",
"&  c #3D4652",
"*  c #3E4A56",
"=  c #3F4D59",
"-  c #43464A",
";  c #48474D",
":  c #434A4D",
">  c #484D4D",
",  c #4B524F",
"<  c #454D52",
"1  c #494E54",
"2  c #434D5B",
"3  c #4A4E5D",
"4  c #465354",
"5  c #4B5355",
"6  c #4C5A57",
"7  c #45525E",
"8  c #4C555A",
"9  c #475A59",
"0  c #4C5B5C",
"q  c #515357",
"w  c #52565B",
"e  c #525B5D",
"r  c #4D615E",
"t  c #53615E",
"y  c #474E61",
"u  c #4A4F61",
"i  c #465461",
"p  c #4A5363",
"a  c #4B5B64",
"s  c #4A5C68",
"d  c #545D62",
"f  c #5A5D63",
"g  c #565E6D",
"h  c #5D5E6A",
"j  c #585F71",
"k  c #605E65",
"l  c #615F6B",
"z  c #4D6262",
"x  c #4D6963",
"c  c #546464",
"v  c #5A6365",
"b  c #546A66",
"n  c #5A6866",
"m  c #56646A",
"M  c #5C646A",
"N  c #556B6A",
"B  c #5C6C6C",
"V  c #55726D",
"C  c #5C716E",
"Z  c #56796F",
"A  c #566272",
"S  c #5C6473",
"D  c #576F71",
"F  c #5D6D71",
"G  c #5F6678",
"H  c #5B6979",
"J  c #567570",
"K  c #5D7372",
"L  c #567973",
"P  c #5E7A75",
"I  c #5D777A",
"U  c #577B7B",
"Y  c #5E7C79",
"T  c #616566",
"R  c #626A67",
"E  c #61646C",
"W  c #626B6D",
"Q  c #696F6F",
"!  c #64706E",
"~  c #616573",
"^  c #646D72",
"/  c #6A6E74",
"(  c #606578",
")  c #636979",
"_  c #6C6E7A",
"`  c #706F7E",
"'  c #627473",
"]  c #6A7375",
"[  c #617A76",
"{  c #647579",
"}  c #6C747B",
"|  c #627D7A",
" . c #6B7A7B",
".. c #727074",
"X. c #72747D",
"o. c #79757E",
"O. c #747B7D",
"+. c #7A7B7E",
"@. c #5F817A",
"#. c #63827D",
"$. c #6E7582",
"%. c #637E80",
"&. c #6D7C81",
"*. c #737582",
"=. c #787683",
"-. c #757984",
";. c #797B84",
":. c #747788",
">. c #767B89",
",. c #7A7D8A",
"<. c #658582",
"1. c #688580",
"2. c #658B84",
"3. c #688B85",
"4. c #668D89",
"5. c #688E89",
"6. c #718083",
"7. c #7C8285",
"8. c #7C828A",
"9. c #669087",
"0. c #689087",
"q. c #67908B",
"w. c #6A928C",
"e. c #7C8292",
"r. c #808686",
"t. c #818189",
"y. c #828888",
"u. c #808291",
"i. c #86879B",
"p. c #858A9C",
"a. c #888B9C",
"s. c #868EA1",
"d. c #888FA1",
"f. c #8990A2",
/* pixels */
"X.;.#.t.7.7.7.7.+.7.;.T f Q ^ Q ^ ^ ^ W ] ] W R R W ! R W Q ! W ^ } } ] ] ] ] W ^ ^ W ^ ~ T k f M f v w Q =.;.O.O.#.O.O.O.7.;.E ",
"] ..o.+.O.O.O.O.] W w w R / / ^ ^ ^  .^ ! ] W M T R W R W W ! c M '  .^ ^ W ^ W ~ ^ ^ / E T f v M f f e e ) ] ] ..o.} ] ] ] n 5 ",
"X.W v W R W W W T q 5 f ] O.} X.] ] ] { ] ' ! R T W ! ] ' ! W B m ^ ] { ' ] ^ ~ / ) ] } / ~ W E T E M f d M h M m d m M M f q 1 ",
"} ] ^ X.} } } } M e 5 e R W / ] R T E R R M n n v n n n M W W n v M E R R E E M W E ^ ^ ^ E h f f v g f q m ^ M W W ^ M ~ E e 1 ",
"} ] / } &.&.X.f q 8 : 4 8 0 e e 0 6 6 6 6 r 6 0 5 6 6 6 6 t 6 0 4 4 6 6 0 0 0 0 0 0 8 5 q 5 5 5 5 0 5 5 % 5 ^ 5 d ^ ] ] ^ M q 5 ",
"} } ]  .&.] e > 1 5 < * x V x b b b c b c c b N V V V V V Z Z b b b b b N J b b b b z d c e a c a b z 0 $ & 8 ; d M ) _ ] ) e 3 ",
" ...] } / 0 < 3 M h ,.S r @.#.C K | B [ C K [ | #.| P #.#.#.#.[ C P [ #.| [ P F | ' P [ Y C K K K V N 0 7 2 3 h f v M / ) T w q ",
" .] ] X.M 1 8 _ ;.*.} p.g 5 b 6 6 e c B C n 0 0 c V V n N b t t t n B t e b ' N B C B [ m e B B e 4 - 7 p h :.*.~ d v E Q ^ d 5 ",
"} ] } W d e E >.,.=.*.$.i.j 7 m B B K K { [ K | #.| | ' ' [ F ' ' K ' ! C [ | | [ [ ! K W C C B v 9 y u S >.,.*.*.^ X.^ E E 8 1 ",
" .W e 8 1 5 f >.:.*.=.*.$.i.S 8 m K P B K { <.{ { P { K I ' P K ' ! K N C ' [ | #.[ #.P [ C B n < 2 p ( >.>.>.;.;./ E e e q 5 4 ",
"} 0 : > # X   S >.*.*.:.*.` i.S 4 m P K K 2.<.%.I F B ' ^ K #.[ C W | ' K [ | #.#.! #.#.#.@.m 8 2 p ~ >.,.>.8.t.X.g $ < q q q 1 ",
"8 < e d : # & . l :.*.=.*.$.X.p.S 8 c ! P F M d d M B M B K C n n B C ' ' C P B V V #.@.Y b 5 3 p S =.,.>.>.,.=.( i # w f e 8 > ",
"w v B E 8 4 4 & o l >.=.*.*.*.*.i.g 2 c M b z b N B Y J m J N n K C M B B J F P B n B P m % 2 u l :.,.,.>.,.X.( p < 4 d W ^ M 5 ",
"M ^ / M 0 N J a 2 . l ,.*.*.*.$.*.s.H p m I <.4.2.2.0.5.4.4.5.0.2.<.2.3. .| 2.1.[ [ P B z i p ~ =.;.,.;.;.*.( s z J b n E { / f ",
"M M ) W d J I D 0 * . l >.*.*.:.$.$.p.A p I Y 2.<.#.<.2.5.2.9.#.#.<.<.<.<.| 1.{ | | N 0 7 3 E ,.,.,.,.8.X.H p 9 D @.V n E { ^ f ",
"M ^ { B s U 2.{ J a 2 . l =.:.:.:.$.$.p.H a U 4.2.2.4.w.w.0.5.<.<.3.<.| <.| | 1.#.K a i p ~ ;.,.8.t.t.;.) p 9 N U @.V m R / E a ",
"M M ' ^ a V | ' ! n 0 * . M >.:.=.:.*.*.p.H z V J Y | 1.#.<.#.#.| [ B ! C | [ | N 0 3 u ~ ;.t.;.,.8.o.) p > c B P Y b m B { M d ",
"M M / M 5 0 M B t V b 6 2 . ~ ;.$.:.>.*.-.f.A % d n K C [ | P ' ' N b N N B C c : 2 3 ~ -.=.=.;.t.=.~ 7 < z N C [ ' t t W W W c ",
"v c ' B 0 c ' [ #.#.#.P 0 * X M >.:.>.>.*.>.s.S 0 V Y Y #.<.#.#.| #.| | #.{ N 7 7 u k o.+.o.-.,.X.~ a a F | #.3.#.Y b n M W E c ",
"c m ^ B 0 c ' [ #.#.@.#.J 0 *   h >.>.;.>.&.$.s.H 0 V @.#.#.2.[ P P | | | J 8 7 1 h X.;.O.=.=.*.S a 8 m K ' | ' [ K c n m ' M d ",
"F B B ^ d V Y #.#.| ' | #.P 0 * . ~ ,.=.>.-.$.$.f.H z L #.#.2.| ' Y #.P V z 7 3 h =.=.=.*.*._ ~ a 8 B P P | #.| #.#.V c v F M n ",
"E M ^ ^ 0 b #.P P Y C P Y 1.J 4 & . S >. .*.-.:.-.f.A 9 Z P Y K B K C b 8 7 u T X.*.>.*.*.` S 7 < m J Y | { P | #.Y c c M W m v ",
"B ^ K B 0 b N c m B B c c n n c 5 & . h ;.O.*.;.} $.p.g 4 t c t c n t 5 2 3 E ;.;.=.*.=.} j a , r b n B K n B C V V b c B ^ B v ",
"B B ] W r V [ [ | ' K ' | K ^ J b 8 2 X E -...>.8.:.*.s.S 5 B K K n 0 7 3 M >.8.7.;.+._ S a 9 N [ | ^ P P ' | 1.<.#.b m M F B d ",
"M W {  .e z C [ | | #.| | | K K J K 0 = X M ;.,.>.8.>.X.a.A 0 N m 8 i u E >.r.7.7.;.X.S s b P V K [ [ | P ' | Y #.P V b W ^ W c ",
"B Q ] ^ e b ' | #.#.<.#.Y #.%.<.| | D z 2 o ) e.>.>.;.} ..i.A : * 7 3 E -.;.8.8.8.X.~ s 0 P w.#.[ | | #.| | | <.#.#.L B ' ' W v ",
"W ' { ] e N [ P Y | | | |  .#.#.| P J N r * X ~ 8.:.>.=...X.s.S p 3 l o.+.7.8.8.X.~ 7 5 V [ 3.#.K C P ' K B c V @.#.V n ' [ W n ",
"! '  .' e e B c e m B B B B E v c c c n m 5 & X G >.*.X...` ` ;.E f X.=.-.>.6.*.^ 7 : e n N C B N C n F P n c 0 r b 6 c ' ] ' m ",
"' {  .' t c F ' P ' I [ K ' F P K ' ' [ K m 0 =   M *.} :.&.X.] / X.X.>.>.;.} ~ s 0 B J | P | [ [ #.] | I | { ' [ P n v W { ! n ",
"K ]  .' e z B K F { | | K K K [ K | P P #.Y J 0 *   A $._ $.*.-.} } X.*.*.} S a 9 V @.Y #.| #.#.#.| | [ { { B F C K r n '  . .B ",
"' '  .} c J P | { [ F ' | F F | | ' | | #.#.Y J 0 *   M *.*.*.X.X._ _ *._ S a 7 B K | #.| [ { | 0.1.1.2.5.<.{ ^ | ' t n } #. .B ",
"} }  .] w b ' n m N c n c v K C m c B n C ' n c z 4 O O $.*.*.*.X.*.` ] *.p : 0 n C C ' n d v B ' B K K J K N c n C n n ]  . .W ",
"W }  .W 0 b ' K K K ' P N n P P K J K | #.#.| J b < & - } *.>.*.X.X.` ` u.S 4 c B [ #.#.[ ! ' ' C n n n n n B N B K b n !  .' n ",
"c ^  .W e V #.2.<.| | { #.{ ' | ' ' ' [ | | ' D 0 u 2 f *.;.=.*.` X.*.;.=.i.H c N | | | | #.| [ [ | [ ' [ | | | #.Y c n W ! ! t ",
"v B ] E e V | #.| ' [ P [ P ' P B B F K ' [ m 4 i 2 d _ -.;.*.o.o...o.t.>.*.e.H 8 N ' K ! C C B B F [ B P [ C P @.C n n R ] W c ",
"v M ^ B 0 b { | | | | ' ' ' ' ' ' ' ' K C c 1 3 i j X.X.-.>.o.o.o.+.+.;.,.:._ p.H 0 m B [ W ! n E K ' W ' ' ' ] | [ b b B ' ! f ",
"d d M B 6 r N n N N [ ' B B V c e c n d e < 4 y h :.>.>.o.O...d ; E 8.:.;.;.$._ i.S p c m n B e 8 e n B ^ N b t n n r v W ^ ^ v ",
"f f M f 5 c B B C ' ! ! B c n d n n B d 5 2 y M *.,.;.;.+./ h 4 $   M 8.>.:.>.$.} p.S 5 t m P B n b n B [ [ n C J n b c v W v d ",
"e g M f 0 b | | #.#.P B [ B W M M B m 9 7 y M *.,.>.;.;.} M i 4 a = X M >.>.>.>.:._ i.A 8 V P | [ { ' F ' P ' | 1.K c v v W T f ",
"f M M f 8 V #.| P ' | #.F n K B d d 4 7 u S :.*.*.-.>.*.G a 4 c V r 2 o S >.>.;.,.*.} p.S 0 C P B K C F ' ' ' C [ K c t d M v q ",
"f v M d 8 b | | | [ C K W C C B m 0 i u j >.>.*.=.8.*.G a 0 B K P J 0 2 O ~ 8.:.,.,.*.` i.g 8 m F K P | | | ' K #.' b c e v f q ",
"e d F d 1 6 n b C K W ' B c b 5 # 2 u ( ,.,.>.>.,.X.) i : a 0 t c W n < & O ( ;.:.*.*.*.$.i.j 1 d c c B N e a z b C c 0 e M d e ",
"e d S f 6 b C [ P #.#.2.#.K m 4 2 u S >.,.,.,.,.$.S a 0 V P K J P Y #.P r = . E =.X.*.=.*.$.i.H 0 b M B ' C K <.4.#.Z c w h v e ",
"d f m m 0 b #.#.| | | <.K N 0 i p ~ ;.;.>.>.t.=.~ s 9 D [ | | #.#.2.9.<.P a * o h >.:.=.*.$.` i.H 0 B B [ #.2.w.0.<.P b e n m d ",
"d d M d 5 V #.5.<.| | K B 8 7 u l ;.,.,.=.,.*.( a 4 N I P | #.#.<.2.<.Y Y J r * o h =.=.*.:.$.$.p.H 7 m D #.%.4.0.<.L c q v d 0 ",
"d d m a 5 b | #.| | <.B 0 7 p ~ =.;.,.;.,.*.( s x P I <.<.#.4.0.5.5.<.<.1.| I a 2 o ~ ;.*.*.=.$.*.p.H 0 B I 2.4.2.<.@.c v M f 8 ",
"e d n d < 6 W B B c 0 < 2 p E ;.,.,.,.8.*.H 2 + 4 N K C J [ b t N #.| B B K F c > & . E >.*.*.=.$.$.p.m 5 m b c b F c d d v M 8 ",
"8 0 m 0 4 N [ ' K v < 3 u ~ >.8.t.8.t.-.( a 9 v B Y | ' <.| | [ | ' ^ B B ^ P B c 8 & X l :.:.:.:.$.$.s.H 0 F Y 1.#.J b d m v a ",
"d 8 d 7 5 N P K m 2 3 p S ;.,.7.,.t.o.) p 8 F Y | | [ K [ P #.[ | K B F M M F B B b 9 * o l >.:.:.:.*.*.p.H 0 N F I V t d v v a ",
"d d d w 8 b J B 1 2 3 E *.o.;.;.t.X.~ a 0 N | #.| | P ! ! @.[ [ Y ^ K { { B B ' K Y J r * . ~ =.$.*.>.:.:.f.H 1 v K b a d v v 0 ",
"d d d 0 5 b N 8 1 u h o.=.+.*.,.*.S s 0 B [ | #.#.#.' | #.[ ! #.C n B B ' F B ' | #.@.P 0 = . M :.:.=.>.&.:.s.H 8 N z c e v v 6 ",
"8 8 e 8 < 5 < 2 2 k ` =.-.=.=.*.S 3 < d B K n b n B n b n V C ' N B b c r t b c n c N B 0 > &   M >.>.>.,.&.$.s.g 1 0 e e d 8 5 ",
"W v e 5 : # 2 3 l X.;.*.X.*._ H i 1 N B ' ' K ' Y [ #.#.9.#.#.#.w.0.3.3.| Y ' | #.| | C B m 0 * . S >.=.:.>.} :.s.A % 5 8 v / n ",
"R } ] W e < 2 T X.*.>.*.;._ S 3 ; d F K K K ' ' [ [ C #.#.#.| | 3.3.#.| | | [ P [ ! | Y C P V 0 * X l >.O.*.*.X.>.,.d T O.8.;.5 ",
"^ n v ] ] w w >.;.=.=.=._ j p < c B K K P ' P | [ ! P #.#.#.[ C #.#.' [ F P K ' K n [ K B ' Y n 5 & . S ;.*.:.;.$.~ ..r.7.] w , ",
"Q v e e 4 - E 7.7.;.+._ S i < v M ' | [ { ' ! ' B [ [ Y P [ P C ' #.| ' F K ^ K K ' [ C M B C C c 4 2 . T *.o.:.>.~ Q Q 6 v 5 4 ",
"Q R v v w d n / ;.;.X.S p 4 m C n B | #.#.[ J N N K ' J B C c c v ! [ C ! [ ' n n C C P P C | Z c e 1 : . f -.>.) ] #...R Q w > ",
"R Q t v v T v v ] / g a 9 N K P | #.<.4.<.#.<.5.3.| | <.#.| [ | Y @.0.5.2.#.| ' B P #.P #.#.#.#.| J d 4 * . M / ..y.7.W Q W e , ",
"Q R f W W n T Q +.Q - % z z m N V N b C V b b J J b N N b b V V V L L Z J V V b b c b c t b b b N V c 0 $ < X.+.r.+.R Q Q R e , ",
"R R t W T W T Q W e 1 q W R B W B n n B B B n W ! B B B n B B B ! K K ' ' ' C ! W B ! B C n n R n B n v q n 7./ ] W ' ] Q R e , ",
"Q R n T R R E E e f e e ^ ^ W F T M M M W n v W ' W ] ! ! ! C W ^ { '  . . . .' ^ ^ R M ~ T k k f f T l e ..O.w c R W R R R t , ",
"Q R 6 E T R T R T v f f W / ^ / W ^ W E Q ! Q Q ]  . .] ]  . .[  .&. . . .6.}  . . ./ { _ / R E E W E T v 7.W e R n M n ! v t q ",
"Q e > w , , 5 q q q f f v W W ' ^ ^ W n W ^ Q ! Q  .' ] ] | }  . . .&. . . . .O. .{ ^ ~ ] _ E W E Q / f / X.q 1 5 5 4 q 5 0 w w ",
"e - - - - - > > - - 1 q 8 f v M T n f f v n T v t v R n W W C B K ^ ' ! W W W W W W v M T d f f f f e q R < : % - $ # : > > , 5 "
};
