/* XPM */
static char *m_0081668269988[] = {
/* columns rows colors chars-per-pixel */
"64 64 207 2 ",
"   c #2A2C26",
".  c #262E2A",
"X  c #2B2D2B",
"o  c #262828",
"O  c #322F2E",
"+  c #27312B",
"@  c #2B322C",
"#  c #33342D",
"$  c #37352C",
"%  c #2E2E31",
"&  c #262E30",
"*  c #2B3534",
"=  c #2D3935",
"-  c #2C3738",
";  c #2D3C3A",
":  c #273433",
">  c #343533",
",  c #393732",
"<  c #343A34",
"1  c #3A3B35",
"2  c #373639",
"3  c #323D3A",
"4  c #3B3D3B",
"5  c #383639",
"6  c #433D3B",
"7  c #493D3C",
"8  c #423936",
"9  c #2D423D",
"0  c #3D4136",
"q  c #33423D",
"w  c #3D413B",
"e  c #404237",
"r  c #41433C",
"t  c #4B413E",
"y  c #46493D",
"u  c #4A4B3E",
"i  c #52433E",
"p  c #3D3D41",
"a  c #413D42",
"s  c #2E4442",
"d  c #334341",
"f  c #3D4341",
"g  c #354843",
"h  c #3E4943",
"j  c #434443",
"k  c #4D4442",
"l  c #444A44",
"z  c #4B4C45",
"x  c #444649",
"c  c #454B4B",
"v  c #4B4D4B",
"b  c #49474B",
"n  c #514544",
"m  c #544946",
"M  c #544C4A",
"N  c #5B4D4C",
"B  c #594647",
"V  c #4E5145",
"C  c #47504C",
"Z  c #4C524C",
"A  c #515245",
"S  c #52554D",
"D  c #5C514E",
"F  c #55594E",
"G  c #5B5D4E",
"H  c #575947",
"J  c #4E4E51",
"K  c #554E52",
"L  c #4C5352",
"P  c #4E5A54",
"I  c #535453",
"U  c #5C5453",
"Y  c #555B54",
"T  c #5B5D54",
"R  c #555759",
"E  c #555C5A",
"W  c #5B5D5B",
"Q  c #59575A",
"!  c #624C4E",
"~  c #644E51",
"^  c #645354",
"/  c #695557",
"(  c #625A55",
")  c #6B5659",
"_  c #645B59",
"`  c #6C5B5C",
"'  c #675458",
"]  c #715C5E",
"[  c #60524F",
"{  c #5D604F",
"}  c #5D6155",
"|  c #56625A",
" . c #5C635C",
".. c #5D685F",
"X. c #576157",
"o. c #616256",
"O. c #61645C",
"+. c #6A645D",
"@. c #64685D",
"#. c #6B695D",
"$. c #6B6155",
"%. c #5D5E60",
"&. c #6D5E60",
"*. c #725D61",
"=. c #5C6462",
"-. c #5E6962",
";. c #5C6567",
":. c #636562",
">. c #6B6564",
",. c #636A63",
"<. c #6C6C65",
"1. c #656669",
"2. c #646C6C",
"3. c #6D6D6B",
"4. c #6A6768",
"5. c #746264",
"6. c #796566",
"7. c #716D65",
"8. c #7B6966",
"9. c #766569",
"0. c #7B666A",
"q. c #736C6A",
"w. c #7B6A6C",
"e. c #6D716C",
"r. c #737366",
"t. c #73736C",
"y. c #79746C",
"u. c #7C796E",
"i. c #76796C",
"p. c #6A6E72",
"a. c #736E71",
"s. c #7D6E72",
"d. c #6E7373",
"f. c #6C7678",
"g. c #757472",
"h. c #7B7472",
"j. c #757975",
"k. c #7B7B73",
"l. c #74767A",
"z. c #7B757A",
"x. c #757B7B",
"c. c #7C7C7B",
"v. c #826D6E",
"b. c #836E72",
"n. c #886F72",
"m. c #837274",
"M. c #887576",
"N. c #817D76",
"B. c #847579",
"V. c #8A7779",
"C. c #847B7B",
"Z. c #8B7B7C",
"A. c #907D7F",
"S. c #7D817D",
"D. c #7D8275",
"F. c #818175",
"G. c #83837C",
"H. c #8A857D",
"J. c #84897E",
"K. c #898A7E",
"L. c #7B7D82",
"P. c #757C84",
"I. c #827F81",
"U. c #8C7E82",
"Y. c #917D81",
"T. c #7C8184",
"R. c #7C828A",
"E. c #858482",
"W. c #8C8384",
"Q. c #858884",
"!. c #8B8B84",
"~. c #83858A",
"^. c #8C848A",
"/. c #838A8B",
"(. c #8C8C8A",
"). c #928485",
"_. c #988385",
"`. c #918C85",
"'. c #928589",
"]. c #948B8C",
"[. c #998B8D",
"{. c #8D918C",
"}. c #8E9283",
"|. c #92938C",
" X c #919285",
".X c #858A93",
"XX c #8C8E92",
"oX c #838A9B",
"OX c #938E93",
"+X c #8D9393",
"@X c #8D929E",
"#X c #939493",
"$X c #9C9496",
"%X c #959A95",
"&X c #999A94",
"*X c #9A9B9B",
"=X c #94989B",
"-X c #A29898",
";X c #9DA29C",
":X c #9FA195",
">X c #A0A39F",
",X c #9B9DA2",
"<X c #9A9EAA",
"1X c #A09BA1",
"2X c #9DA3A3",
"3X c #B1A8A7",
"4X c #A7A9AA",
/* pixels */
"Q 1.&.=.Q Q %.Q Q %.R 6 a.C.U.).Z.U.M.).Z.v.m.U.Z.V.v.b.Z._.-X[.M.b.s.m.M.V._.0.6.*.] *.) ) *.0.0.6.*.` U 1.:.W W W 1.1.1.&.1.x ",
"I R J J R v b J v J X r W.L.L.].OX$XW.W.$X].B.W.m.m.V.V.W.W.Z.E.OX^.m.).Y.Y.Y.v.] ) *.v.b.6.6.s.w.w.8.9.M I R J M v J Q R R x 2 ",
"I v 2 2 5 5 5 p p 2 o p.OX$XY.1X$XOX'.m.Z.[.).Z.A.].].M.].[.`.`.'.OXZ.B.B.n.m.m.] ] 0.Z.V.v.*.M.` m.w.v.+.b j 4 2 > > f p p 2 2 ",
"J x p 2 a a v a a % 2 ].*X-X[.'.).Z.A.Z.Y.'.W.).[.-XY.H.'.].].C.m.B.s.M.0.0.*.0.n.v.m.w.*.v.0.v.^ 8.8.y.w.I b 6 4 2 4 a x a 5 % ",
"v l 4 p p b b > < % # k m k M n m k k n m M k S M M m m t m m i n t t k a 7 7 7 k n 7 7 8 8 6 6 6 7 8 7 8 j v > 2 k v j j 4 > % ",
"I v 5 4 j j > % > < p   > # > > # < # X     @ . + X . + + @ + +   + @   # % # X @ X X @ # ; 0 < < = 3 = X 4 j > 4 z b z b j , % ",
"J b p c a O X l :.O.E. ., r y w w w 0 = = * ; ; 9 ; = 9 q ; 9 = # = < 9 ; ; * * = - : ; q 1 l w h h f < c W 3.j._ v b S M v 4 % ",
"I v h x p X 4 q.m.c.j.{.W , w r w w < = j z z z y e l z z z z C V z u u u m u z z v v z ; 1 w w f w 1 x W i.{.*XE. .W T I Q 7 4 ",
"L x p p p > 7.H.D.E.i.r.{. ., w w r 4 = h I Y E Y Y Y | Y X.X.T G Y } } T ( } T W T Y C = q w h j 1 l Y :.W.!.#XR.l.p.O.Q Q r 7 ",
"v j O X X @ e.K.K.K.u.i.k.%XW 1 4 r 4 : j Y  .=. ...=.=... .O.O. .-.,.,.O.@.#.,.,.>. .Z ; 1 j r 1 c R :.l.c.{./.x.d.I k 4 > 4 > ",
"v & o O O % f e.}.K.D.D.J.k.%XW 1 4 4 * ; Z Y  ...-.-.-.X... .T X...,.,.:.:.,.<.,.O.S g 3 w j < x P :.l.L.T.I.T.T.2.3 , 2 o & % ",
"a k >.b.m o f w O.k.r.r.F.<.e.{.W , r < = q L Y =.,...=. .=... .O. .,.@.O.,.,.#.O.Y g q 4 4 , v E _ z.L.L.l.x.l.l.C   n ' %.K a ",
"` m.U.m.m @ > f j e.!.D.k.c.t.y.{.=.> 1 4 ; d L E  ...-.=.=. .O.@.@.,.,.@.,.,.O.Y 4 = 1 w , c E :.g.L.I.g.g.g.d.Z > > n ' w.s.` ",
"] b.C.] k @ w , f x q.C.E.G.!.G.E.*X .1 4 4 ; d L E | =.=. .O.@.:.:.,.,.<.+.O.Y q - 0 6 1 z z :.g.h.z.h.h.L.l.c < 0 , m >.0.s.5.",
"6.M.].0.7 3 f 1 , f x a.^.z.I.OXOXOX,X;.1 r 4 ; s L E -.=... . ...-.,.:.,. .D f ; 4 e 1 C =.>.h.y.h.i.q.i.d.C < w y = N v.n.m.6.",
"n.V.).m.k 4 w w w > x v c.1X(.I.&X*Xc.*X%.1 w f 9 d Z P  ...T T Y T .... .F q ; 4 e , c R a.G.`.].N.G.i.<.Z > w w w > M 0.q.` 6.",
"0.V.B.9.t 4 j w w r , j L .X2XOX(.(.{.!.*X-.4 j w 9 d Z Y ..X.Y T  .W T F f ; 4 r , c =.4.t.u.k.y.y.y.@.Z 1 e r e e < M q.z.m.5.",
"9.h.B.9.k < l l r e r $ j v c.>X&X&X:X*X&X2X;.0 f 0 9 s Z Y X.| W O.T S d 9 4 r , c :.F.$XG.K.`.J.y.O.b , e y y y y < m ^ a.C.] ",
"m.B.b.0.M < e 4 4 4 6 r < h c D.{.!.F. X!.H.*X=.4 r 0 9 d Z Y | X.Y S g 9 1 r 1 l :.F.|.|.`.!.!.u.e.c 1 r 4 < 0 1 0 < k ! >.s.] ",
"M.H.U.C.S @ q = = : = 1 6 # f x e.Q.D.G.G.N.k.*X=.< f , = = z z z z d 9 1 r , l %.i.!.G.G.G.F.7.,.v 1 e 0 ; * : : = # N 0.Z.Z.5.",
"9.B.).B.n . ; j l l 3 @ 4 4 , f 0 +.G.G.j.H.y.E.;X .1 w 4 = : : = s s < r , x I q.(.C.<.u.y.o.T Z , r 1 = @ e y y 3 X ( W.h.b.*.",
"s.U.^.b.m + = z Y Y z 3 * 1 4 1 f > o.g.#.y.F.|.|.;X=.1 w q 4 0 0 w r w , c W W G.&X#XF.i.#.T l > w , : = z V A A *   ( Z.0.s.` ",
"*.B.B.s.k + - C X. .Y C 3 . 1 4 < f > I S.S.j.|.Q.k.+X| < e j y l y r , l W 7.c.F.N.F.G.u.<.C , r 1 * > y V Y X.V * X N 6.B.6.N ",
"*.w.w.s.m X * z E  . .S z * : < 4 , f < e.{./.S.j.3.k.#X .4 w j y 0 , x Y T k.j.h.k.u.y.<.C , 0 1 * = u A G } { S = % U *.b.0.' ",
"] 9.h.*.t + = C T ....X.S Z ; - 4 4 1 w w x.4XR.x.x.g.a.+X=.4 r r , c L <.Q.(.|.;X;XK.j.C = 0 1 : * u S X.} } { A 3 @ U h.0.9.) ",
") *.6.] t @ ; C Y  . ... .Y Z 3 - 3 4 < 4 j l.E.T.x.l.l.P.+X%., , l L 1.c.E.!.#X%XS.D.P , 0 1 @ = y V F  .} } { A * @ m *.0.9./ ",
"^ / / ~ 7 @ = v T ..O...-.-.Y C < - 4 w 1 f 4 O.k.S.~.c.x.d.+X-.Z L :.x.S.S.S.T.D.2.C $ 0 < = = u A G  .} } ..o.A ; X N 0.>.s.` ",
"^ ) ) ] k @ - Z X.,.:...-.-. .P C 3 * 4 4 > w l i.#X/.!.T.f.T.R.2.=.x.x.j.x.x.d.j.P $ e 0 : = y A F T } } ..O.} A = @ N 6.9.*.! ",
") v.v.0.t @ : Z  .2.2.-...-... .Y z = * < < > w j j.{.T.T.R.R.P.d.j.x.x.j.x.x.2.Z $ 0 1 = , u u H T G T  .} o.} A = X N *.0.*.~ ",
") 6.w.0.n @ - V | ,.-.,....... .X.P c 3 9 < q * f c S.*X@X+XR.R.T.T.T.P.x.d.2.C 1 e 0 = 9 u u H } H T } } O.} } Z = X N v.Y.B.) ",
") 9.m.0.m * 3 v =.-.-.;.-...|  . .E P h = < q 4 > w c R.<X@XR.P.T.T.L.S.x.2.C > e e 0 = e u H { { G o.O.......T V * X ( Y.$XU.*.",
"5.M.U.w.N * = Z =.-. .-.-.....|  . .X.h * 3 q 0 4 @ 4 E @XR.@XP.;.;.f.j.c.P # 0 e e $ = u u G { O.o.o.} } X.:.} Z 3 : ' $X3X3XZ.",
"b.I.C.A.N @ ; v  .-.:.,. . .| | | =.E l - 4 h q , $ l O.@X.XoX.XP.p.l.g.(.:.# 4 0 e 1 * y F } } o.O.T G F  .:.T M q @ ^ `.-X3X_.",
"U.'.V.U.M X 3 z W =. . .W ..-.-.=.=.E c : q h 0 # c O.#.(.#X$Xc.(.L.e.3.e.+X ., 4 e 1 * y F  .@. .o.o.G }  .O. .Z 3 @ ^ W.^.H.h.",
"I.).C.v.n   3 z T  . .W W .... .| | P d - 4 f < Z 3.F.F.u.Q.!.E.g.3.3.e.,.:.+XW , e 1 = 9 u G o.o.( G G }  .} ( Z 3 @ N ).|.W.h.",
"s.B.B.M.k @ * z T W X. . . .-...P P d ; 3 0 > c  .C.>X&X!. X!.`.k.q.g.r.t.3.e.+XX.1 8 1 = ; A T ( { G } o.G } T z 3 X ^ ).$X].s.",
"s.s.B.B.M @ = z W O.W O. . .-.X.P s : 3 4 , v :.g.!.`.H.H.`.H.@.I q.c.g.g.S.k.g.%X .< 4 1 = q S S G T o.{ { o.T Z ; @ ( ).].].q.",
"0.w.B.m.m @ 3 z T O.O.O.O...X.Z ; ; 3 w < c ,.z.|.|.!.H.G.i.<.c < 4 7.Q.c.c.j.t.7.{.E 1 0 , = 3 z F T T T o.O.} V ; @ ( [.].'.w.",
"] 5.h.B.M @ < z W _  .o.O.T L ; - 4 f < c ..k.(.!.&XQ.!.|.x.C # $ w f :.XX(.!.F.k.k.#X ., 0 1 * 3 c Y } o.( O.X.V ; + ( ).W.Z.>.",
"` ^ ` >.i X * z  .O.O.O.T Z 3 ; 4 4 4 c E 7.#X{.{.#X~.g.d.Z # 0 4 , f x l.*X*X(.Q.j.k.#X ., 4 1 @ < z Y O. ...} V ; + ( ).y.*.N ",
"4.>.*.+.t @ > v T :.O. .S 3 ; 4 w 1 x R ,.S.!.(.+X.XR.S.h ; w 0 w w 1 f x x.(.G.J.K.t.r.#X .< 4 , ; 3 V Y W ..X.C q : ( A.h.0.) ",
"` q.<./ t # ; Z  .:. .I q 3 0 r 4 c R 3.R.x.G.T.+X.XT.C > w w 0 e r j 1 h j <.m.y.J.F.t.k.%X%.1 4 < = 3 v Y ..| Z s @ U m.g.h.^ ",
"N ^ 5.*.7 @ 3 S ....S g ; 4 r > x R :.T.L.L.R.T.R.d.Z > y 0 < 1 < < w r 1 f r O.i.r.J.J.D.i.%X .1 4 1 * 3 C E | S s - _ C.9.` m ",
"/ ~ w.5.7 * 9 z I Z q ; 4 w > Z R W l.L.l.g.j.l.d.L , r 0 = = : = 9 q , w > f w @.D.k.i.D.,.<.{.W 1 0 > * q C c Z g + U Z.C.5.! ",
"q.` *.] 7 < q s ; - ; 1 w < l R W d.l.S.c.L.a.p.L > e w * 3 h y 0 l q ; < 4 , f l t.!.G.E.E.c.c.=X=., 4 1 q ; s s g @ ^ M.Z.v./ ",
"t.` 8.y.m , y w 0 0 0 r 1 c J _ h.C.g.C.I.g.2.L < w w = 3 C S S V P C ; ; < 4 , w j 3.Q.!.#X#XOXQ.,X=., w j w f w w = U w.m.V.9.",
"8.9.7.v.m < C z y j j 1 c W t.!.!.!.c.g.g.:.c > w 0 = q z Z X.} X. .P C 9 ; 3 4 < w h z.OXXXU.I.~.(.=X%.1 w h j h h 3 N n.m.V.) ",
"5.m.M.*.t < y j r w , c R a.$XF.c.h.t.q.,.J < 4 < = = l Z X.}  .X.X. .X.v d ; < 4 , f x L.,X<Xl.#X#XQ.,X=.< w c h h 3 _ W.H.Z.5.",
"8.8.v./ 7 4 j z w , f I 4.C.J.G.j.k.G.e.P , e 0 = < z Z Y X.T .. . ...:.Y Z 3 * , 6 , w b a.+X+X(.G.D.(.2X=.4 j j h < _ W.Z._.v.",
"] 6.8.] t < e r , j T q.G.G.H.!. Xu.3.Z 1 e 0 @ @ z C X.X. .| |  .@.-. . .T v 3 = 1 r , h f g.*X(.E.Q.(.(.;X=.4 w y < D _.)._.v.",
"m.m.M.8.k $ w 1 z =.G.|.|.G.N.F.u.e.C , j 4 @ * z F | .. .o. .....O. .T O.O.F S ; ; 4 r 2 f x j.{.}.!.}.!.G.*X=.0 h = U [.$X_.6.",
"8.m.M.m.k > 1 j | g.G.k.N.N.k.#.<.C , e 4 = * V P } } o.O.O.-.-.O.O.O.o.O... .Y v 3 * 1 4 , j c e.T.G.Q.K.G.G.*X=.4 * +.Y.].m.] ",
"G @.h.6.7 o c M q.|.y.( #.#.$.T L , w 1 = @ y Z { { { } @...-.@.@.@. . .@.|  .X.Y Z 3 @ 4 4 , h w 3.E.g.F.!.y.k.&XW X _ V.a.a.U ",
"S I Q Q k r I O.E.&X Xy.u.{ Y c $ r 4 = = y V G } { { o.@...,.,.,.@.:.@... . . . .Y z = * 1 e , f 4 :.k.j.G.r.r.D.Q.L _ q.>.:.1 ",
"I v v U I 6 W S.G.k.F.C.y.:.v , r e w : r S G } { } } @.@...@.,.,.,.:.,.@.....=.,.X.Y z : 4 j w , f 3 2./.S.i.i.k.T W >.%.J p > ",
"J j 1 4 < X :.C.k.t.r.#.O.Z $ w e y 1 * r F G } } } O.@.}  . .O...O.O.O..... ... . .| l . 4 g w w < w 4 3.+Xg.<.k.I M v 3 4 2 % ",
"x k 6 4 4 4 I C.:X;XK.j.L > 0 r 0 e 1 : j S A A H S H S S S Z I I Y Y S S S S Y Z I S c : 4 x f f w > f j S.=XT.p.1.1.J 4 4 > % ",
"J v 4 4 5 j r Q S.j.j.L # 0 0 e e e 0 3 3 = * = * = ; q q 9 3 s d 3 3 3 = 3 3 ; 3 ; ; ; ; 4 l f w f 0 , f j j.d.1.p.&.j f 4 2 > ",
"W v j R k a j b :.v >   # # # $ # $ $ X + . @ X X @ @ @ @ @ X > > @ @ @ @ @ * @ : @ O O > 3 0 < 3 > < > . 4 W &.4.1.j j a p 5 5 ",
"R I v J v v v b S 4 4 N T _ D D _ _ U N D ( N U [ M N N N M m i n B m [ N N B m B N B a k m k n m D N N n v Q I Q v b a p p 5 2 ",
"J K J J J J a 2 5 4 v m.U.U.W.B.V.B.b.U.s.U.z.B.0.q.*.b.*.*.*.) ] 9.0.0.*.] ] ] *.*.~ ~ ' &.' *.) ) 6.M.5.Q v > a j a x 4 4 2 2 ",
"Q Q x J a p p p 4 4 4 >.&X].1X(.U.Q.#X(.z.z.9.w.C.Z.b.M.w.Y.U.0.5.s.v.w.C.v.6.Z.n.v.*.*.*.&.&.*.` 5.] s.9.1.l > 4 a a x a p p 4 ",
"R b 4 p p % > X O 2 5 R OXU.^.^.$X*X$X'.~.L.q.9.h.b.Y.).).$X[.v.*.w.b.9.Z.Z.M._.Y.b.] / ' ' &.9.*.*.&.7.>.K > X > > 2 5 4 p 5 4 ",
"a % 2 % o o o o o o % p s.0.*.6.w.m.9.W.h.a.5.` ] s.V.m.Z.).).m.` 6.0.) 8.v.M.m.*.) ! ! a B K &.' / ) N n > % % o % % % % > 2 2 "
};
