/* XPM */
static char *cfcf1a0c08804f1dfa5755f8890474aaYrEKZXNppfOi5yzO[] = {
/* columns rows colors chars-per-pixel */
"32 32 3 1 ",
"  c black",
". c #996448",
"X c #B97A57",
/* pixels */
"XXXXX... XXXXXXXXXXXXX......XXXX",
"XXXXXX.. XXXXXXXXXXXXXX.....XXXX",
"XXXXXXX. XXXXXXXXXXXXXXXX.....XX",
"XXXXXXX. XXXXXXXXXXXXXXXXX.....X",
"XXXXXXX. XXXXXXXXXXXXXXXXXXX...X",
"XXXXXXX. XXXXXXXXXXXXXXXXXXXX...",
"                               .",
"XXXXXXXXXXXXXXXXX.. XXXXXXXX..  ",
"XXXXXXXXXXXXXXXXXX.. XXXXXXXX...",
"XXXXXXXXXXXXXXXXXX.. XXXXXXXXX..",
"XXXXXXXXXXXXXXXXXXX. XXXXXXXXXX.",
"XXXXXXXXXXXXXXXXXXX. XXXXXXXXXX.",
"XXXXXXXXXXXXXXXXXXX. XXXXXXXXXX.",
"                                ",
"XX.....  XXXXXXXXXXXXXXXXXXX....",
"XX..X.. XXXXXXXXXXXXXXXXXXXXX...",
"XXXX... XXXXXXXXXXXXXXXXXXX.XX..",
"XXXX.. XXXXXXXXXXXXXXXXXXXXX.X..",
"XXXXX. XXXXXXXXXXXXXXXXXXXXXXXX.",
"  XXX. XXXXXXXXXXXXXXXXXXXXXXXX.",
"              XXXXXXXXXXXXXXXXX.",
"..  XXXXXXXX                    ",
".. XXXXXXXXXXXXXXXX.... XXX.....",
".. XXXXXXXXXXXXXXXXX... XXXXX...",
"X..XXXXXXXXXXXXXXXXXX.. XXXXXX..",
"X. XXXXXXXXXXXXXXXXXX.. XXXX.XX.",
"X. XXXXXXXXXXXXXXXXXXX. XXXXX.X.",
"XX XXXXXXXXXXXXXXXXXXX  XXXXXXX.",
"                XXXXXX XXXXXXXX.",
"XXXXX.......X...           XXXX.",
"XXXXXXXXXXX..............X      ",
"XXXXXXXXXXXXXXXXXXXXXXXX....XXXX"
};
