/* XPM */
static char *_3368_2f9f72ced485776e556c209bedb0339763b1ab5ce82f6d3910b6cb4e885bea60[] = {
/* columns rows colors chars-per-pixel */
"100 100 8 1 ",
"  c black",
". c gray48",
"X c gray50",
"o c gray54",
"O c gray55",
"+ c gray56",
"@ c gray63",
"# c None",
/* pixels */
"@@@@@@@@@@@@@@@@@@@@@@@@@@@@@@@@@@@@@@@@@@@@@@@@@@@@@@@@@@@@@@@@@@@@@@@@@@@@@@@@@@@@@@@@@@@@@@@@@@@@",
"@@@@@@@@@@@@@@@@@@@@@@@@@@@@@@@@@@@@@@@@@@@@@@@@@@@@@@@@@@@@@@@@@@@@@@@@@@@@@@@@@@@@@@@@@@@@@@@@@@@@",
"@@@@@@@@@@@@@@@@@@@@@@@@@@@@@@@@@@@@@@@@@@@@@@@@@@@@@@@@@@@@@@@@@@@@@@@@@@@@@@@@@@@@@@@@@@@@@@@@@@@@",
"@@@@OO@@@@@@@@@@@@@@@@@@@@@@@@@@@@@@@@@@@@@@@@@@@@@@@@@@@@@@@@@@@@@@@@@@@@@@@@@@@@@@@@@@@@@@@@@@@@@@",
"@@@OOO@@@@@@@@@@@@@@@@@@@@@@@@@@@@@@@@@@@@@@@@@@@@@@@@@@@@@@@@@@@@@@@@@@@@@@@@@@@@@@@@@@@@OO@@@@@@@@",
"@@@OO  @@@@@@@@@@@@@@@@@@@@@@@@@@@@@@@@@@@@@@@@@@@@@@@@@@@@@@@@@@@@@@@@@@@@@@@@@@@@@@@@@@@OOO@@@@@@@",
"@@@@O  @@@@@@@@@@@@@@@@@@@@@@@@@@@@@@@@@@@@@@@@@@@@@@@@@@@@@@@@@@@@@@@@@@@@@@@@@@@@@@@@@@@OO  @@@@@@",
"@@@@@@@@@@@@@@@@@@@@@@@@@@@@@@@@@@@@@@@@@@@@@@@@@@@@@@@@@@@@@@@@@@@@@@@@@@@@@@@@@@@@@@@@@@OO  @@@@@@",
"@@@@@@@@@@@@@@@@@@@@@@@@@@@@@@@@@@@@@@@@@@@@@@@@@@@@@@@@@@@@@@@@@@@@@@@@@@@@@@@@@@@@@@@@@@@@@@@@@@@@",
"@@@@@@@@@@@@@@@@@@@@@@@@@@@@@@@@@@@@@@@@@@@@@@@@@@@@ @@@ @@  @@   @@@@@@@@@@@@@@@@@@@@@@@@@@@@@@@@@@",
"@@@@@@@@@@@@@@@@@@@@@@@@@@@@@@@@@@@@@@@@@@@@@@@@@@@@  @  @ @@ @ @@ @@@@@@@@@@@@@@@@@@@@@@@@@@@@@@@@@",
"@@@@OO@@@@@@@@@@@@@@@@@@@@@@@@@@@@@@@@@@@@@@@@@@@@@@ @ @ @    @   @@@@@@@@@@@@@@@@@@@@@@@@@@@@@@@@@@",
"@@@@OO@@@@@@@@@@@@@@@@@@@@@@@@@@@@@@@@@@@@@@@@@@@@@@ @@@ @ @@ @ @@@@@@@@@@@@@@@@@@@@@@@@@@OOO@@@@@@@",
"@@@OO  @@@@@@@@@@@@@@@@@@@@@@@@@@@@@@@@@@@@@@@@@@@@@ @@@ @ @@ @ @@@@@@@@@@@@@@@@@@@@@@@@@@OO  @@@@@@",
"@@@OO  @@@@@@@@@@@@@@@@@@@@@@@@@@@@@@@@@@@@@@@@@@@@@@@@@@@@@@@@@@@@@@@@@@@@@@@@@@@@@@@@@@@OO  @@@@@@",
"@@@@@@@@@@@@@@@@@@@@@@@@@@@@@@@@@@@@@@@@@@@@@@@@@@@@@@@@@@@@@@@@@@@@@@@@@@@@@@@@@@@@@@@@@@@OO@@@@@@@",
"@@@@@@@@@@@@@@@@@@@@@@@@@@@@@@@@@@@@@@@@@@@@@@@@@@@@@@@@@@@@@@@@@@@@@@@@@@@@@@@@@@@@@@@@@@@@@@@@@@@@",
"@@@@@@@@@@@@@@@@@@@@@@@OOOOOOOXXXXOOOO@@@@@@@@@@@@@@@@@@@@@@@@@@@@@@@@@@@@@@@@@@@@@@@@@@@@@@@@@@@@@@",
"@@@@@@@@@@@@@@@@@@@@@OOOOOXXXXXXXXXXXOOOOO@@@@@@@@@@@@@@@@@@@@@@@@@@@@@@@@@@@@@@@@@@@@@@@@@@@@@@@@@@",
"@@@@@@@@@@@@@@@@@@@OOOOOXXXXXXXXXX            @@@@@@@@@@@@@@@@@@@@@@@@@@@@@@@@@@@@@@@@@@@@@@@@@@@@@@",
"@@@@@@@@@@@@@@@@@OOOOOoXXXXXX    #############    @@@@@@@@@@@@@@@@@@@@@@@@@@@@@@@@@@@@@@@@@@@@@@@@@@",
"@@@@@@@@@@@@@@@OOOOOoooXXX   #####################   @@@@@@@@@@@@@@@@@@@@@@@@@@@@@@@@@@@@@@@@@@@@@@@",
"@@@@@@@@@@@@@@OOOOooXXXX  ###########################  @@@@@@@@@@@@@@@@@@@@@@@@@@@@@@@@@@@@@@@@@@@@@",
"@@@@@@@@@@@@OOOOOooXXX  ###############################  @@@@@@@@@@@@@@@@@@@@@@@@@@@@@@@@@@@@@@@@@@@",
"@@@@@@@@@@@OOOOXooXX  ###################################  @@@@@@@@@@@@@@@@@@@@@@@@@@@@@@@@@@@@@@@@@",
"@@@@@@@@@@OOOOXoXX  #######################################  @@@@@@@@@@@@@@@@@@@@@@@@@@@@@@@@@@@@@@@",
"@@@@@@@@@OOOOXXXX ########################################### @@@@@@@@@@@@@@@@@@@@@@@@@@@@@@@@@@@@@@",
"@@@@@@@@OOOOXXX  #############################################  @@@@@@@@@@@@@@@@@@@@@@@@@@@@@@@@@@@@",
"@@@@@@@OOOOoXX ################################################# @@@@@@@@@@@@@@@@@@@@@@@@@@@@@@@@@@@",
"@@@@@@OOOOoXX ################################################### @@@@@@@@@@@@@@@@@@@@@@@@@@@@@@@@@@",
"@@@@@OOOOoXX ##################################################### @@@@@@@@@@@@@@@@@@@@@@@@@@@@@@@@@",
"@@@@OOOOoXX ####################################################### @@@@@@@@@@@@@@@@@@@@@@@@@@@@@@@@",
"@@@@OOOoXX ######################################################### @@@@@@@@@@@@@@@@@@@@@@@@@@@@@@@",
"@@@OOOoXX ########################################################### @@@@@@@@@@@@@@@@@@@@@@@@@@@@@@",
"@@OOOoXXX ########################################################### @@@@@@@@@@@@@@@@@@@@@@@@@@@@@@",
"@OOOooXX ############################################################# @@@@@@@@@@@@@@@@@@@@@@@@@@@@@",
"@OOOoXX ############################################################### @@@@@@@@@@@@@@@@@@@@@@@@@@@@",
"OOOooX ################################################################# @@@@@@@@@@@@@@@@@@@@@@@@@@@",
"OO+oXX ################################################################# @@@@@@@@@@@@@@@@@@@@@@@@@@@",
"OOooX ################################################################### @@@@@@@@@@@@@@@@@@@@@@@@@@",
"OO+XX ################################################################### @@@@@@@@@@@@@@@@@@@@@@@@@@",
"O..X ##################################################################### @@@@@@@@@@@@@@@@@@@@@@@@@",
"OXXX ##################################################################### @@@@@@@@@@@@@@@@@@@@@@@@@",
"XXX ####################################################################### @@@@@@@@@@@@@@@@@@@@@@@@",
"XXX ####################################################################### @@@@@@@@@@@@@@@@@@@@@@@@",
"XX ######################################################################### @@@@@@@@@@@@@@@@@@@@@@@",
"XX ######################################################################### @@@@@@@@@@@@@@@@@@@@@@@",
"XX ######################################################################### @@@@@@@@@@@@@@@@@@@@@@@",
"XX ######################################################################### @@@@@@@@@@@@@@@@@@@@@@@",
"X ########################################################################### @@@@@@@@@@@@@@@@@@@@@@",
"X ########################################################################### @@@@@@@@@@@@@@@@@@@@@@",
"X ########################################################################### @@@@@@@@@@@@@@@@@@@@@@",
"X ########################################################################### @@@@@@@@@@@@@@@@@@@@@@",
" ############################################################################# @@@@@@@@@@@@@@@@@@@@@",
" ############################################################################# @@@@@@@@@@@@@@@@@@@@@",
" ############################################################################# @@@@@@@@@@@@@@@@@@@@@",
" ############################################################################# @@@@@@@@@@@@@@@@@@@@@",
" ############################################################################# @@@@@@@@@@@@@@@@@@@@@",
" ############################################################################# @@@@@@@@@@@@@@@@@@@@@",
" ############################################################################# @@@@@@@@@@@@@@@@@@@@@",
" ############################################################################# @@@@@@@@@@@@@@@@@@@@@",
" ############################################################################# @@@@@@@@@@@@@@@@@@@@@",
" ############################################################################# @@@@@@@@@@@@@@@@@@@@@",
" ############################################################################# @@@@@@@@@@@@@@@@@@@@@",
" ############################################################################# @@@@@@@@@@@@@@@@@@@@@",
" ############################################################################# @@@@@@@@@@@@@@@@@@@@@",
"X ########################################################################### @@@@@@@@@@@@@@@@@@@@@@",
"X ########################################################################### @@@@@@@@@@@@@@@@@@@@@@",
"X ########################################################################### @@@@@@@@@@@@@@@@@@@@@@",
"X ########################################################################### @@@@@@@@@@@@@@@@@@@@@@",
"XX ######################################################################### @@@@@@@@@@@@@@@@@@@@@@@",
"XX ######################################################################### @@@@@@@@@@@@@@@@@@@@@@@",
"XX ######################################################################### @@@@@@@@@@@@@@@@@@@@@@@",
"XXX######################################################################### @@@@@@@@@@@@@@@@@@@@@@@",
"XXX ####################################################################### @@@@@@@@@@@@@@@@@@@@@@@@",
"OoX ####################################################################### @@@@@@@@@@@@@@@@@@@@@@@@",
"OooX ##################################################################### @@@@@@@@@@@@@@@@@@@@@@@@@",
"OOoo ##################################################################### @@@@@@@@@@@@@@@@@@@@@@@@@",
"OOXXX ################################################################### @@@@@@@@@@@@@@@@@@@@@@@@@@",
"OOOoX ################################################################### @@@@@@@@@@@@@@@@@@@@@@@@@@",
"OOOXXX ################################################################# @@@@@@@@@@@@@@@@@@@@@@@@@@@",
"@OOOoXX################################################################# @@@@@@@@@@@@@@@@@@@@@@@@@@@",
"@OOOOoX ############################################################### @@@@@@@@@@@@@@@@@@@@@@@@@@@@",
"@@OOOXXX ############################################################# @@@@@@@@@@@@@@@@@@@@@@@@@@@@@",
"@@@OOOXoX ########################################################### @@@@@@@@@@@@@@@@@@@@@@@@@@@@@@",
"@@@@OOXXX ########################################################### @@@@@@@@@@@@@@@@@@@OOO@@@@@@@@",
"@@@@O  XXX ######################################################### @@@@@@@@@@@@@@@@@@@@OO  @@@@@@@",
"@@@@O  XoXX ####################################################### @@@@@@@@@@@@@@@@@@@@@OO  @@@@@@@",
"@@@@@@OOXXoX ##################################################### @@@@@@@@@@@@@@@@@@@@@@@OO@@@@@@@@",
"@@@@@@OOOXXXX ################################################### @@@@@@@@@@@@@@@@@@@@@@@@@@@@@@@@@@",
"@@@@@@@OOOOXXX ################################################# @@@@@@@@@@@@@@@@@@@@@@@@@@@@@@@@@@@",
"@@@@@@@OOOOOOXXX #############################################  @@@@@@@@@@@@@@@@@@@@@@@@@@@@@@@@@@@@",
"@@@@OO@@@OOOOOXXX ########################################### @@@@@@@@@@@@@@@@@@@@@@@@@@@OO@@@@@@@@@",
"@@@@O  @@@@@OOOXXX  #######################################  @@@@@@@@@@@@@@@@@@@@@@@@@@@@OO  @@@@@@@",
"@@@@O  @@@@@OOOOOXXXX ###################################  @@@@@@@@@@@@@@@@@@@@@@@@@@@@@@OO  @@@@@@@",
"@@@@O@@@@@@@@OOOOOXXXXX ###############################  @@@@@@@@@@@@@@@@@@@@@@@@@@@@@@@@@OOO@@@@@@@",
"@@@@@@@@@@@@@@@OOOOOXXXX  ###########################  @@@@@@@@@@@@@@@@@@@@@@@@@@@@@@@@@@@@@@@@@@@@@",
"@@@@@@@@@@@@@@@@OOOOOXXXXXX  #####################   @@@@@@@@@@@@@@@@@@@@@@@@@@@@@@@@@@@@@@@@@@@@@@@",
"@@@@@@@@@@@@@@@@@@OOOOOXXXXXXXX  #############    @@@@@@@@@@@@@@@@@@@@@@@@@@@@@@@@@@@@@@@@@@@@@@@@@@",
"@@@@@@@@@@@@@@@@@@@OOOOOOOXXXXXOO             OOO@@@@@@@@@@@@@@@@@@@@@@@@@@@@@@@@@@@@@@@@@@@@@@@@@@@"
};
