/* XPM */
static char *_f488030c53c43cbb0785ca72c533a81xnbOsMGi5kbSg3nw[] = {
/* columns rows colors chars-per-pixel */
"70 70 36 1 ",
"  c None",
". c black",
"X c #010101",
"o c #020202",
"O c gray1",
"+ c #040404",
"@ c #060606",
"# c gray3",
"$ c #090909",
"% c gray4",
"& c #0B0B0B",
"* c gray5",
"= c #0E0E0E",
"- c gray6",
"; c #101010",
": c #111111",
"> c gray7",
", c #1B1B1B",
"< c gray12",
"1 c #202020",
"2 c #222222",
"3 c gray44",
"4 c gray45",
"5 c gray46",
"6 c #767676",
"7 c #777777",
"8 c gray47",
"9 c gray48",
"0 c #7B7B7B",
"q c #7C7C7C",
"w c gray49",
"e c #7E7E7E",
"r c gray50",
"t c #808080",
"y c gray51",
"u c #838383",
/* pixels */
"                                  11                                  ",
"                                  XXr                                 ",
"                                 tXXr                                 ",
"                                 tXXr                                 ",
"                                 tXXr                                 ",
"                                 tXXr                                 ",
"                                 tXXr                                 ",
"                                 tXXr                                 ",
"                                  XXr                                 ",
"                                  XXr                                 ",
"                                  XXr                                 ",
"                                  XXr                                 ",
"                                  XXr                                 ",
"                                 tXXr                                 ",
"                                 tXXr                                 ",
"                                 tXXr                                 ",
"                                 tXXr                                 ",
"                                 tXXr                                 ",
"                                 tXXr                                 ",
"                                 tXXr                                 ",
"                                 tXXr                                 ",
"                                 tXXr                                 ",
"                                 tXXr                                 ",
"                                 rXXr                                 ",
"                                 rXXr                                 ",
"                                 8#X6                                 ",
"                                  XXt                                 ",
"                                 tX-                                  ",
"                                 3-Xr                                 ",
"                                  XX                                  ",
"                                                                      ",
"                                                                      ",
"                                                                      ",
" trrrrrrrrrrrrrrrrrrrrrrr8 66            rtrrrtttttrrrrrrrrrrrrrrr  r ",
"#++++++++++++++++++++++++XX#+X          X++++++++++++++++++++++++XX+X+",
"-XXXXXXXXXXXXXXXXXXXXXXXX-X:X-          XXXXXXXXXXXXXXXXXXXXXXXXX#X:X<",
"                         r388            t                       6 t8 ",
"                                                                      ",
"                                                                      ",
"                                                                      ",
"                                  X+                                  ",
"                                 rXXr                                 ",
"                                 rXXr                                 ",
"                                 tXXr                                 ",
"                                 tXXr                                 ",
"                                 tXXr                                 ",
"                                  XXr                                 ",
"                                  XXr                                 ",
"                                  XXr                                 ",
"                                  XXr                                 ",
"                                  XXr                                 ",
"                                  XXr                                 ",
"                                  XXr                                 ",
"                                  XXr                                 ",
"                                  XXr                                 ",
"                                  XXr                                 ",
"                                  XXr                                 ",
"                                  XXr                                 ",
"                                  XXr                                 ",
"                                 tXXr                                 ",
"                                 tXXr                                 ",
"                                 tXXr                                 ",
"                                 tXXr                                 ",
"                                 tXXr                                 ",
"                                 rXXr                                 ",
"                                 r+X6                                 ",
"                                 t#Xr                                 ",
"                                 rXXt                                 ",
"                                  -Xr                                 ",
"                                  :,                                  "
};
